<svg width="25" height="25" viewBox="0 0 25 25" fill="none" xmlns="http://www.w3.org/2000/svg">
<path d="M12.5 0C5.60754 0 0 5.60755 0 12.5C0 19.3925 5.60754 25 12.5 25C19.3925 25 25 19.3925 25 12.5C25 5.60755 19.3925 0 12.5 0ZM12.5 1.875C18.3791 1.875 23.125 6.62087 23.125 12.5C23.125 17.2908 19.9731 21.3266 15.625 22.6575V19.4604C15.625 18.2666 14.9371 17.2429 13.9429 16.7334C14.9096 16.5485 15.8072 16.1817 16.5612 15.6637C17.3153 15.1456 17.904 14.4912 18.2785 13.7546C18.6531 13.0181 18.8026 12.2207 18.7148 11.4286C18.6269 10.6366 18.3042 9.87273 17.7734 9.20044C18.0507 8.34713 18.3603 6.85042 17.6245 5.67261C16.2058 5.67261 15.2904 6.64505 14.8535 7.24976C14.1066 7.0044 13.3074 6.87713 12.5 6.875C11.6921 6.87572 10.892 7.00174 10.144 7.24609C9.70608 6.64111 8.79139 5.67261 7.37549 5.67261C6.53107 7.02426 7.05307 8.47785 7.33276 9.07104C6.7661 9.74043 6.41078 10.5098 6.29726 11.3131C6.18374 12.1164 6.31541 12.9298 6.68097 13.6835C7.04654 14.4372 7.63511 15.1087 8.39622 15.6406C9.15733 16.1724 10.0683 16.5486 11.051 16.7371C10.2347 17.1578 9.6233 17.9213 9.43604 18.8477H8.6145C7.80388 18.8477 7.48891 18.5183 7.05078 17.9626C6.61828 17.407 6.15323 17.0337 5.59448 16.8787C5.29323 16.8468 5.09028 17.0759 5.35278 17.2791C6.23966 17.8828 6.30087 18.8709 6.65649 19.5178C6.98024 20.1003 7.64355 20.625 8.39355 20.625H9.375V22.6575C5.02691 21.3266 1.875 17.2908 1.875 12.5C1.875 6.62087 6.62087 1.875 12.5 1.875Z" fill="black"/>
</svg>
