<svg width="24" height="23" viewBox="0 0 24 23" fill="none" xmlns="http://www.w3.org/2000/svg">
<path d="M22.1543 0.984436C21.8292 0.998777 21.5264 1.09346 21.2598 1.20123C21.01 1.3017 20.0558 1.71097 18.5527 2.35553C17.0484 3.00065 15.0565 3.85584 12.9316 4.76959C8.68196 6.5971 3.90421 8.65423 1.45703 9.70709C1.36501 9.74667 1.04392 9.84924 0.703125 10.1153C0.362329 10.3813 0 10.9326 0 11.5469C0 12.0423 0.236068 12.5344 0.533203 12.8282C0.830339 13.122 1.14475 13.2671 1.41406 13.377C2.39123 13.7757 5.42185 15.0159 5.99414 15.2501C6.19555 15.867 7.29249 19.2226 7.54688 20.045C7.71457 20.5877 7.8742 20.9276 8.08203 21.1973C8.18595 21.3322 8.30674 21.4504 8.45312 21.543C8.51163 21.58 8.57579 21.6086 8.64062 21.6348L8.64453 21.6368C8.65947 21.6428 8.67235 21.653 8.6875 21.6583C8.71608 21.6683 8.7352 21.6695 8.77344 21.6778C8.92576 21.727 9.07955 21.7579 9.2168 21.7579C9.80196 21.7579 10.1602 21.4356 10.1602 21.4356L10.1816 21.42L13.1914 18.8165L16.8418 22.2696C16.8932 22.3423 17.3725 23.0001 18.4297 23.0001C19.0574 23.0001 19.5553 22.6851 19.875 22.3497C20.1947 22.0143 20.3938 21.6619 20.4785 21.2188V21.2169C20.5577 20.7982 23.9219 3.5274 23.9219 3.5274L23.916 3.55084C24.0145 3.10133 24.0403 2.6827 23.9316 2.26959C23.823 1.85648 23.5366 1.46095 23.1816 1.24811C22.8267 1.03531 22.4794 0.970095 22.1543 0.984436ZM21.9668 3.07428C21.962 3.10346 21.9704 3.08879 21.9629 3.12311L21.9609 3.13483L21.959 3.14654C21.959 3.14654 18.6365 20.1964 18.5137 20.8458C18.5227 20.7967 18.4816 20.8942 18.4395 20.9532C18.3799 20.9121 18.2578 20.8594 18.2578 20.8594L18.2383 20.838L13.252 16.1212L9.72656 19.168L10.7754 14.9688C10.7754 14.9688 17.3316 8.18217 17.7266 7.78717C18.0446 7.47117 18.1113 7.36101 18.1113 7.25201C18.1113 7.10601 18.0352 7.00006 17.8652 7.00006C17.7122 7.00006 17.5065 7.14881 17.3965 7.21881C15.9634 8.13236 9.67182 11.7992 6.85156 13.4395C6.40338 13.2561 3.28966 11.9815 2.23438 11.5508C2.24236 11.5473 2.23973 11.5486 2.24805 11.545C4.69587 10.4918 9.47163 8.43473 13.7207 6.60748C15.8452 5.69386 17.8387 4.83802 19.3418 4.19342C20.8218 3.55875 21.8501 3.12195 21.9668 3.07428Z" fill="#212121"/>
</svg>
