<svg width="1100" height="707" viewBox="0 0 1100 707" fill="none" xmlns="http://www.w3.org/2000/svg">
<path d="M3.36719 3.625V15H1.02344V3.625H3.36719ZM10.0703 3.625L5.71094 10.3047H2.84375L2.54688 8.21875H4.46094L7.22656 3.625H10.0703ZM7.65625 15L4.46875 9.91406L6.09375 8.24219L10.4375 15H7.65625ZM10.6406 10.8594V10.6953C10.6406 10.0755 10.7292 9.50521 10.9062 8.98438C11.0833 8.45833 11.3411 8.0026 11.6797 7.61719C12.0182 7.23177 12.4349 6.93229 12.9297 6.71875C13.4245 6.5 13.9922 6.39062 14.6328 6.39062C15.2734 6.39062 15.8438 6.5 16.3438 6.71875C16.8438 6.93229 17.263 7.23177 17.6016 7.61719C17.9453 8.0026 18.2057 8.45833 18.3828 8.98438C18.5599 9.50521 18.6484 10.0755 18.6484 10.6953V10.8594C18.6484 11.474 18.5599 12.0443 18.3828 12.5703C18.2057 13.0911 17.9453 13.5469 17.6016 13.9375C17.263 14.3229 16.8464 14.6224 16.3516 14.8359C15.8568 15.0495 15.2891 15.1562 14.6484 15.1562C14.0078 15.1562 13.4375 15.0495 12.9375 14.8359C12.4427 14.6224 12.0234 14.3229 11.6797 13.9375C11.3411 13.5469 11.0833 13.0911 10.9062 12.5703C10.7292 12.0443 10.6406 11.474 10.6406 10.8594ZM12.8906 10.6953V10.8594C12.8906 11.2135 12.9219 11.5443 12.9844 11.8516C13.0469 12.1589 13.1458 12.4297 13.2812 12.6641C13.4219 12.8932 13.6042 13.0729 13.8281 13.2031C14.0521 13.3333 14.3255 13.3984 14.6484 13.3984C14.9609 13.3984 15.2292 13.3333 15.4531 13.2031C15.6771 13.0729 15.8568 12.8932 15.9922 12.6641C16.1276 12.4297 16.2266 12.1589 16.2891 11.8516C16.3568 11.5443 16.3906 11.2135 16.3906 10.8594V10.6953C16.3906 10.3516 16.3568 10.0286 16.2891 9.72656C16.2266 9.41927 16.125 9.14844 15.9844 8.91406C15.849 8.67448 15.6693 8.48698 15.4453 8.35156C15.2214 8.21615 14.9505 8.14844 14.6328 8.14844C14.3151 8.14844 14.0443 8.21615 13.8203 8.35156C13.6016 8.48698 13.4219 8.67448 13.2812 8.91406C13.1458 9.14844 13.0469 9.41927 12.9844 9.72656C12.9219 10.0286 12.8906 10.3516 12.8906 10.6953ZM25.1719 12.4141L27.3906 6.54688H29.2266L25.9297 15H24.4141L21.1328 6.54688H22.9688L25.1719 12.4141ZM22.4297 6.54688V15H20.1797V6.54688H22.4297ZM27.9688 15V6.54688H30.2188V15H27.9688ZM37.875 6.54688V8.3125H33.7812V6.54688H37.875ZM34.4297 6.54688V15H32.1797V6.54688H34.4297ZM39.5156 6.54688V15H37.2578V6.54688H39.5156ZM40.8906 10.8594V10.6953C40.8906 10.0755 40.9792 9.50521 41.1562 8.98438C41.3333 8.45833 41.5911 8.0026 41.9297 7.61719C42.2682 7.23177 42.6849 6.93229 43.1797 6.71875C43.6745 6.5 44.2422 6.39062 44.8828 6.39062C45.5234 6.39062 46.0938 6.5 46.5938 6.71875C47.0938 6.93229 47.513 7.23177 47.8516 7.61719C48.1953 8.0026 48.4557 8.45833 48.6328 8.98438C48.8099 9.50521 48.8984 10.0755 48.8984 10.6953V10.8594C48.8984 11.474 48.8099 12.0443 48.6328 12.5703C48.4557 13.0911 48.1953 13.5469 47.8516 13.9375C47.513 14.3229 47.0964 14.6224 46.6016 14.8359C46.1068 15.0495 45.5391 15.1562 44.8984 15.1562C44.2578 15.1562 43.6875 15.0495 43.1875 14.8359C42.6927 14.6224 42.2734 14.3229 41.9297 13.9375C41.5911 13.5469 41.3333 13.0911 41.1562 12.5703C40.9792 12.0443 40.8906 11.474 40.8906 10.8594ZM43.1406 10.6953V10.8594C43.1406 11.2135 43.1719 11.5443 43.2344 11.8516C43.2969 12.1589 43.3958 12.4297 43.5312 12.6641C43.6719 12.8932 43.8542 13.0729 44.0781 13.2031C44.3021 13.3333 44.5755 13.3984 44.8984 13.3984C45.2109 13.3984 45.4792 13.3333 45.7031 13.2031C45.9271 13.0729 46.1068 12.8932 46.2422 12.6641C46.3776 12.4297 46.4766 12.1589 46.5391 11.8516C46.6068 11.5443 46.6406 11.2135 46.6406 10.8594V10.6953C46.6406 10.3516 46.6068 10.0286 46.5391 9.72656C46.4766 9.41927 46.375 9.14844 46.2344 8.91406C46.099 8.67448 45.9193 8.48698 45.6953 8.35156C45.4714 8.21615 45.2005 8.14844 44.8828 8.14844C44.5651 8.14844 44.2943 8.21615 44.0703 8.35156C43.8516 8.48698 43.6719 8.67448 43.5312 8.91406C43.3958 9.14844 43.2969 9.41927 43.2344 9.72656C43.1719 10.0286 43.1406 10.3516 43.1406 10.6953ZM56.0703 9.96094V11.7109H51.7734V9.96094H56.0703ZM52.5234 6.54688V15H50.2734V6.54688H52.5234ZM57.5938 6.54688V15H55.3359V6.54688H57.5938ZM63.2344 15.1562C62.5781 15.1562 61.9896 15.0521 61.4688 14.8438C60.9479 14.6302 60.5052 14.3359 60.1406 13.9609C59.7812 13.5859 59.5052 13.151 59.3125 12.6562C59.1198 12.1562 59.0234 11.625 59.0234 11.0625V10.75C59.0234 10.1094 59.1146 9.52344 59.2969 8.99219C59.4792 8.46094 59.7396 8 60.0781 7.60938C60.4219 7.21875 60.8385 6.91927 61.3281 6.71094C61.8177 6.4974 62.3698 6.39062 62.9844 6.39062C63.5833 6.39062 64.1146 6.48958 64.5781 6.6875C65.0417 6.88542 65.4297 7.16667 65.7422 7.53125C66.0599 7.89583 66.2995 8.33333 66.4609 8.84375C66.6224 9.34896 66.7031 9.91146 66.7031 10.5312V11.4688H59.9844V9.96875H64.4922V9.79688C64.4922 9.48438 64.4349 9.20573 64.3203 8.96094C64.2109 8.71094 64.0443 8.51302 63.8203 8.36719C63.5964 8.22135 63.3099 8.14844 62.9609 8.14844C62.6641 8.14844 62.4089 8.21354 62.1953 8.34375C61.9818 8.47396 61.8073 8.65625 61.6719 8.89062C61.5417 9.125 61.4427 9.40104 61.375 9.71875C61.3125 10.0312 61.2812 10.375 61.2812 10.75V11.0625C61.2812 11.401 61.3281 11.7135 61.4219 12C61.5208 12.2865 61.6589 12.5339 61.8359 12.7422C62.0182 12.9505 62.237 13.112 62.4922 13.2266C62.7526 13.3411 63.0469 13.3984 63.375 13.3984C63.7812 13.3984 64.1589 13.3203 64.5078 13.1641C64.862 13.0026 65.1667 12.7604 65.4219 12.4375L66.5156 13.625C66.3385 13.8802 66.0964 14.125 65.7891 14.3594C65.487 14.5938 65.1224 14.7865 64.6953 14.9375C64.2682 15.0833 63.7812 15.1562 63.2344 15.1562ZM73.7734 9.96094V11.7109H69.4766V9.96094H73.7734ZM70.2266 6.54688V15H67.9766V6.54688H70.2266ZM75.2969 6.54688V15H73.0391V6.54688H75.2969ZM81.3516 6.54688V15H79.0938V6.54688H81.3516ZM84.0703 6.54688V8.28906H76.4141V6.54688H84.0703ZM86.7734 9.05469H89.2266C89.9974 9.05469 90.6536 9.18229 91.1953 9.4375C91.7422 9.6875 92.1589 10.0365 92.4453 10.4844C92.737 10.9323 92.8828 11.4505 92.8828 12.0391C92.8828 12.4661 92.7995 12.862 92.6328 13.2266C92.4714 13.5859 92.2344 13.8984 91.9219 14.1641C91.6094 14.4297 91.2266 14.6354 90.7734 14.7812C90.3203 14.9271 89.8047 15 89.2266 15H85.3672V6.54688H87.625V13.25H89.2266C89.5651 13.25 89.8359 13.1953 90.0391 13.0859C90.2474 12.9714 90.3984 12.8229 90.4922 12.6406C90.5911 12.4583 90.6406 12.2604 90.6406 12.0469C90.6406 11.8229 90.5911 11.6198 90.4922 11.4375C90.3984 11.25 90.2474 11.099 90.0391 10.9844C89.8359 10.8698 89.5651 10.8125 89.2266 10.8125H86.7734V9.05469ZM96.4922 6.54688V15H94.2422V6.54688H96.4922Z" fill="#212121"/>
<rect x="0.5" y="69.5" width="385" height="79" rx="4.5" stroke="#9747FF" stroke-dasharray="10 5"/>
<path d="M235.291 117V102.723H245.926V117H244.285V104.188H236.951V117H235.291ZM247.928 106.297H249.666L252.029 112.508C252.166 112.872 252.293 113.224 252.41 113.562C252.527 113.895 252.632 114.214 252.723 114.52C252.814 114.826 252.885 115.122 252.938 115.408H253.006C253.097 115.083 253.227 114.656 253.396 114.129C253.566 113.595 253.748 113.051 253.943 112.498L256.18 106.297H257.928L253.27 118.572C253.022 119.23 252.732 119.803 252.4 120.291C252.075 120.779 251.678 121.154 251.209 121.414C250.74 121.681 250.174 121.814 249.51 121.814C249.204 121.814 248.934 121.795 248.699 121.756C248.465 121.723 248.263 121.684 248.094 121.639V120.34C248.237 120.372 248.41 120.402 248.611 120.428C248.82 120.454 249.035 120.467 249.256 120.467C249.66 120.467 250.008 120.389 250.301 120.232C250.6 120.083 250.857 119.861 251.072 119.568C251.287 119.275 251.473 118.927 251.629 118.523L252.215 117.02L247.928 106.297ZM261.268 106.297V110.789H267.234V106.297H268.855V117H267.234V112.166H261.268V117H259.637V106.297H261.268ZM278.533 106.297H280.32L275.701 111.463L280.691 117H278.787L273.924 111.57V117H272.293V106.297H273.924V111.492L278.533 106.297ZM289.92 107.674H286.395V117H284.793V107.674H281.316V106.297H289.92V107.674ZM308.533 106.297V117H307.068V110.027C307.068 109.741 307.075 109.451 307.088 109.158C307.107 108.859 307.13 108.559 307.156 108.26H307.098L303.543 117H302.166L298.699 108.26H298.641C298.66 108.559 298.673 108.859 298.68 109.158C298.693 109.451 298.699 109.76 298.699 110.086V117H297.225V106.297H299.402L302.859 115.047L306.365 106.297H308.533ZM316.023 106.102C316.935 106.102 317.716 106.303 318.367 106.707C319.018 107.111 319.516 107.677 319.861 108.406C320.206 109.129 320.379 109.975 320.379 110.945V111.951H312.986C313.006 113.208 313.318 114.165 313.924 114.822C314.529 115.48 315.382 115.809 316.482 115.809C317.16 115.809 317.758 115.747 318.279 115.623C318.8 115.499 319.34 115.317 319.9 115.076V116.502C319.36 116.743 318.823 116.919 318.289 117.029C317.762 117.14 317.137 117.195 316.414 117.195C315.385 117.195 314.487 116.987 313.719 116.57C312.957 116.147 312.365 115.529 311.941 114.715C311.518 113.901 311.307 112.905 311.307 111.727C311.307 110.574 311.499 109.578 311.883 108.738C312.273 107.892 312.82 107.241 313.523 106.785C314.233 106.329 315.066 106.102 316.023 106.102ZM316.004 107.43C315.138 107.43 314.448 107.713 313.934 108.279C313.419 108.846 313.113 109.637 313.016 110.652H318.68C318.673 110.014 318.572 109.454 318.377 108.973C318.188 108.484 317.898 108.107 317.508 107.84C317.117 107.566 316.616 107.43 316.004 107.43ZM324.764 106.297V110.789H330.73V106.297H332.352V117H330.73V112.166H324.764V117H323.133V106.297H324.764ZM349.549 111.629C349.549 112.794 349.36 113.794 348.982 114.627C348.611 115.46 348.077 116.098 347.381 116.541C346.684 116.977 345.851 117.195 344.881 117.195C343.976 117.195 343.185 117 342.508 116.609C341.837 116.219 341.307 115.649 340.916 114.9C340.532 114.152 340.311 113.24 340.252 112.166H337.41V117H335.789V106.297H337.41V110.789H340.271C340.363 109.799 340.604 108.956 340.994 108.26C341.385 107.563 341.912 107.029 342.576 106.658C343.24 106.287 344.021 106.102 344.92 106.102C345.857 106.102 346.671 106.323 347.361 106.766C348.058 107.202 348.595 107.833 348.973 108.66C349.357 109.48 349.549 110.47 349.549 111.629ZM341.912 111.629C341.912 112.527 342.013 113.292 342.215 113.924C342.423 114.549 342.745 115.027 343.182 115.359C343.624 115.685 344.197 115.848 344.9 115.848C345.597 115.848 346.163 115.685 346.6 115.359C347.042 115.034 347.365 114.559 347.566 113.934C347.775 113.302 347.879 112.534 347.879 111.629C347.879 110.737 347.775 109.982 347.566 109.363C347.358 108.745 347.036 108.276 346.6 107.957C346.163 107.632 345.597 107.469 344.9 107.469C344.204 107.469 343.634 107.632 343.191 107.957C342.755 108.276 342.433 108.745 342.225 109.363C342.016 109.982 341.912 110.737 341.912 111.629Z" fill="#09A494"/>
<path d="M37.291 117V102.723H47.9258V117H46.2852V104.188H38.9512V117H37.291ZM49.9277 106.297H51.666L54.0293 112.508C54.166 112.872 54.293 113.224 54.4102 113.562C54.5273 113.895 54.6315 114.214 54.7227 114.52C54.8138 114.826 54.8854 115.122 54.9375 115.408H55.0059C55.097 115.083 55.2272 114.656 55.3965 114.129C55.5658 113.595 55.748 113.051 55.9434 112.498L58.1797 106.297H59.9277L55.2695 118.572C55.0221 119.23 54.7324 119.803 54.4004 120.291C54.0749 120.779 53.6777 121.154 53.209 121.414C52.7402 121.681 52.1738 121.814 51.5098 121.814C51.2038 121.814 50.9336 121.795 50.6992 121.756C50.4648 121.723 50.263 121.684 50.0938 121.639V120.34C50.237 120.372 50.4095 120.402 50.6113 120.428C50.8197 120.454 51.0345 120.467 51.2559 120.467C51.6595 120.467 52.0078 120.389 52.3008 120.232C52.6003 120.083 52.8574 119.861 53.0723 119.568C53.2871 119.275 53.4727 118.927 53.6289 118.523L54.2148 117.02L49.9277 106.297ZM63.2676 106.297V110.789H69.2344V106.297H70.8555V117H69.2344V112.166H63.2676V117H61.6367V106.297H63.2676ZM80.5332 106.297H82.3203L77.7012 111.463L82.6914 117H80.7871L75.9238 111.57V117H74.293V106.297H75.9238V111.492L80.5332 106.297ZM91.9199 107.674H88.3945V117H86.793V107.674H83.3164V106.297H91.9199V107.674ZM110.533 106.297V117H109.068V110.027C109.068 109.741 109.075 109.451 109.088 109.158C109.107 108.859 109.13 108.559 109.156 108.26H109.098L105.543 117H104.166L100.699 108.26H100.641C100.66 108.559 100.673 108.859 100.68 109.158C100.693 109.451 100.699 109.76 100.699 110.086V117H99.2246V106.297H101.402L104.859 115.047L108.365 106.297H110.533ZM118.023 106.102C118.935 106.102 119.716 106.303 120.367 106.707C121.018 107.111 121.516 107.677 121.861 108.406C122.206 109.129 122.379 109.975 122.379 110.945V111.951H114.986C115.006 113.208 115.318 114.165 115.924 114.822C116.529 115.48 117.382 115.809 118.482 115.809C119.16 115.809 119.758 115.747 120.279 115.623C120.8 115.499 121.34 115.317 121.9 115.076V116.502C121.36 116.743 120.823 116.919 120.289 117.029C119.762 117.14 119.137 117.195 118.414 117.195C117.385 117.195 116.487 116.987 115.719 116.57C114.957 116.147 114.365 115.529 113.941 114.715C113.518 113.901 113.307 112.905 113.307 111.727C113.307 110.574 113.499 109.578 113.883 108.738C114.273 107.892 114.82 107.241 115.523 106.785C116.233 106.329 117.066 106.102 118.023 106.102ZM118.004 107.43C117.138 107.43 116.448 107.713 115.934 108.279C115.419 108.846 115.113 109.637 115.016 110.652H120.68C120.673 110.014 120.572 109.454 120.377 108.973C120.188 108.484 119.898 108.107 119.508 107.84C119.117 107.566 118.616 107.43 118.004 107.43ZM126.764 106.297V110.789H132.73V106.297H134.352V117H132.73V112.166H126.764V117H125.133V106.297H126.764ZM151.549 111.629C151.549 112.794 151.36 113.794 150.982 114.627C150.611 115.46 150.077 116.098 149.381 116.541C148.684 116.977 147.851 117.195 146.881 117.195C145.976 117.195 145.185 117 144.508 116.609C143.837 116.219 143.307 115.649 142.916 114.9C142.532 114.152 142.311 113.24 142.252 112.166H139.41V117H137.789V106.297H139.41V110.789H142.271C142.363 109.799 142.604 108.956 142.994 108.26C143.385 107.563 143.912 107.029 144.576 106.658C145.24 106.287 146.021 106.102 146.92 106.102C147.857 106.102 148.671 106.323 149.361 106.766C150.058 107.202 150.595 107.833 150.973 108.66C151.357 109.48 151.549 110.47 151.549 111.629ZM143.912 111.629C143.912 112.527 144.013 113.292 144.215 113.924C144.423 114.549 144.745 115.027 145.182 115.359C145.624 115.685 146.197 115.848 146.9 115.848C147.597 115.848 148.163 115.685 148.6 115.359C149.042 115.034 149.365 114.559 149.566 113.934C149.775 113.302 149.879 112.534 149.879 111.629C149.879 110.737 149.775 109.982 149.566 109.363C149.358 108.745 149.036 108.276 148.6 107.957C148.163 107.632 147.597 107.469 146.9 107.469C146.204 107.469 145.634 107.632 145.191 107.957C144.755 108.276 144.433 108.745 144.225 109.363C144.016 109.982 143.912 110.737 143.912 111.629Z" fill="#212121"/>
<rect x="0.5" y="199.5" width="1099" height="17" rx="8.5" stroke="#212121"/>
<rect x="2" y="201" width="500" height="14" rx="7" fill="#09A494"/>
<path d="M25.625 270.125H4.375L6.25 291.375L15 293.875L23.75 291.375L25.625 270.125Z" fill="#E65100"/>
<path d="M15 272V291.938L22 289.937L23.5625 272H15Z" fill="#FF6D00"/>
<path d="M15 282.625V280.125H20.375L19.9375 287.312L15 288.937V286.312L17.5625 285.438L17.75 282.625H15ZM20.5625 277.625L20.75 275.125H15V277.625H20.5625Z" fill="white"/>
<path d="M15 286.312V288.937L10.0625 287.312L9.8125 283.875H12.3125L12.4375 285.438L15 286.312ZM11.9375 277.625H15V275.125H9.3125L9.75 282.625H15V280.125H12.125L11.9375 277.625Z" fill="#EEEEEE"/>
<path d="M41.3301 274.805V279.346C41.3301 279.606 41.3236 279.87 41.3105 280.137C41.2975 280.397 41.2747 280.638 41.2422 280.859H41.3496C41.571 280.482 41.8509 280.166 42.1895 279.912C42.5345 279.652 42.9251 279.456 43.3613 279.326C43.7975 279.189 44.2598 279.121 44.748 279.121C45.6074 279.121 46.3236 279.258 46.8965 279.531C47.4759 279.805 47.9089 280.228 48.1953 280.801C48.4883 281.374 48.6348 282.116 48.6348 283.027V290H47.0332V283.135C47.0332 282.243 46.8281 281.576 46.418 281.133C46.0143 280.69 45.3926 280.469 44.5527 280.469C43.7585 280.469 43.1237 280.622 42.6484 280.928C42.1797 281.227 41.8411 281.67 41.6328 282.256C41.431 282.842 41.3301 283.558 41.3301 284.404V290H39.709V274.805H41.3301ZM55.4316 288.867C55.6986 288.867 55.972 288.844 56.252 288.799C56.5319 288.753 56.7598 288.698 56.9355 288.633V289.893C56.7467 289.977 56.4831 290.049 56.1445 290.107C55.8125 290.166 55.487 290.195 55.168 290.195C54.6016 290.195 54.0872 290.098 53.625 289.902C53.1628 289.701 52.7917 289.362 52.5117 288.887C52.2383 288.411 52.1016 287.754 52.1016 286.914V280.566H50.5781V279.775L52.1113 279.141L52.7559 276.816H53.7324V279.297H56.8672V280.566H53.7324V286.865C53.7324 287.536 53.8854 288.037 54.1914 288.369C54.5039 288.701 54.9173 288.867 55.4316 288.867ZM70.7246 279.102C71.903 279.102 72.7917 279.411 73.3906 280.029C73.9896 280.641 74.2891 281.628 74.2891 282.988V290H72.6875V283.066C72.6875 282.201 72.4987 281.553 72.1211 281.123C71.75 280.687 71.1966 280.469 70.4609 280.469C69.4258 280.469 68.6738 280.768 68.2051 281.367C67.7363 281.966 67.502 282.848 67.502 284.014V290H65.8906V283.066C65.8906 282.487 65.806 282.005 65.6367 281.621C65.474 281.237 65.2266 280.951 64.8945 280.762C64.569 280.566 64.1556 280.469 63.6543 280.469C62.9447 280.469 62.375 280.615 61.9453 280.908C61.5156 281.201 61.2031 281.637 61.0078 282.217C60.819 282.79 60.7246 283.496 60.7246 284.336V290H59.1035V279.297H60.4121L60.6562 280.811H60.7441C60.959 280.439 61.2292 280.127 61.5547 279.873C61.8802 279.619 62.2448 279.427 62.6484 279.297C63.0521 279.167 63.4818 279.102 63.9375 279.102C64.7513 279.102 65.4316 279.255 65.9785 279.561C66.5319 279.86 66.9323 280.319 67.1797 280.938H67.2676C67.6191 280.319 68.1009 279.86 68.7129 279.561C69.3249 279.255 69.9954 279.102 70.7246 279.102ZM79.25 290H77.6191V274.805H79.25V290Z" fill="#212121"/>
<rect x="0.5" y="303.5" width="1099" height="17" rx="8.5" stroke="#212121"/>
<rect x="2" y="305" width="500" height="14" rx="7" fill="#09A494"/>
<rect x="0.5" y="371.5" width="267" height="75" rx="4.5" stroke="#9747FF" stroke-dasharray="10 5"/>
<rect x="159.5" y="391.5" width="88" height="35" rx="7.5" fill="#09A494"/>
<rect x="159.5" y="391.5" width="88" height="35" rx="7.5" stroke="#09A494"/>
<path d="M177.016 404.297H178.803L174.184 409.463L179.174 415H177.27L172.406 409.57V415H170.775V404.297H172.406V409.492L177.016 404.297ZM182.738 404.297V408.789H188.705V404.297H190.326V415H188.705V410.166H182.738V415H181.107V404.297H182.738ZM202.992 409.629C202.992 410.508 202.878 411.292 202.65 411.982C202.423 412.673 202.094 413.255 201.664 413.73C201.234 414.206 200.714 414.57 200.102 414.824C199.496 415.072 198.809 415.195 198.041 415.195C197.325 415.195 196.667 415.072 196.068 414.824C195.476 414.57 194.962 414.206 194.525 413.73C194.096 413.255 193.76 412.673 193.52 411.982C193.285 411.292 193.168 410.508 193.168 409.629C193.168 408.457 193.367 407.461 193.764 406.641C194.161 405.814 194.727 405.186 195.463 404.756C196.205 404.32 197.087 404.102 198.109 404.102C199.086 404.102 199.939 404.32 200.668 404.756C201.404 405.192 201.973 405.824 202.377 406.65C202.787 407.471 202.992 408.464 202.992 409.629ZM194.848 409.629C194.848 410.488 194.962 411.234 195.189 411.865C195.417 412.497 195.769 412.985 196.244 413.33C196.719 413.675 197.331 413.848 198.08 413.848C198.822 413.848 199.431 413.675 199.906 413.33C200.388 412.985 200.743 412.497 200.971 411.865C201.199 411.234 201.312 410.488 201.312 409.629C201.312 408.776 201.199 408.04 200.971 407.422C200.743 406.797 200.391 406.315 199.916 405.977C199.441 405.638 198.826 405.469 198.07 405.469C196.957 405.469 196.14 405.837 195.619 406.572C195.105 407.308 194.848 408.327 194.848 409.629ZM214.76 404.297V415H213.129V405.693H207.426V415H205.795V404.297H214.76ZM224.438 404.297H226.225L221.605 409.463L226.596 415H224.691L219.828 409.57V415H218.197V404.297H219.828V409.492L224.438 404.297ZM232.533 404.121C233.809 404.121 234.757 404.408 235.375 404.98C235.993 405.553 236.303 406.468 236.303 407.725V415H235.121L234.809 413.418H234.73C234.431 413.809 234.118 414.137 233.793 414.404C233.467 414.665 233.09 414.863 232.66 415C232.237 415.13 231.716 415.195 231.098 415.195C230.447 415.195 229.867 415.081 229.359 414.854C228.858 414.626 228.461 414.281 228.168 413.818C227.882 413.356 227.738 412.77 227.738 412.061C227.738 410.993 228.161 410.173 229.008 409.6C229.854 409.027 231.143 408.714 232.875 408.662L234.721 408.584V407.93C234.721 407.005 234.522 406.357 234.125 405.986C233.728 405.615 233.168 405.43 232.445 405.43C231.885 405.43 231.352 405.511 230.844 405.674C230.336 405.837 229.854 406.029 229.398 406.25L228.9 405.02C229.382 404.772 229.936 404.561 230.561 404.385C231.186 404.209 231.843 404.121 232.533 404.121ZM234.701 409.727L233.07 409.795C231.736 409.847 230.795 410.065 230.248 410.449C229.701 410.833 229.428 411.377 229.428 412.08C229.428 412.692 229.613 413.145 229.984 413.438C230.355 413.73 230.847 413.877 231.459 413.877C232.41 413.877 233.188 413.613 233.793 413.086C234.398 412.559 234.701 411.768 234.701 410.713V409.727Z" fill="white"/>
<rect x="20.5" y="391.5" width="88" height="35" rx="7.5" stroke="#09A494"/>
<path d="M38.0156 404.297H39.8027L35.1836 409.463L40.1738 415H38.2695L33.4062 409.57V415H31.7754V404.297H33.4062V409.492L38.0156 404.297ZM43.7383 404.297V408.789H49.7051V404.297H51.3262V415H49.7051V410.166H43.7383V415H42.1074V404.297H43.7383ZM63.9922 409.629C63.9922 410.508 63.8783 411.292 63.6504 411.982C63.4225 412.673 63.0938 413.255 62.6641 413.73C62.2344 414.206 61.7135 414.57 61.1016 414.824C60.4961 415.072 59.8092 415.195 59.041 415.195C58.3249 415.195 57.6673 415.072 57.0684 414.824C56.4759 414.57 55.9616 414.206 55.5254 413.73C55.0957 413.255 54.7604 412.673 54.5195 411.982C54.2852 411.292 54.168 410.508 54.168 409.629C54.168 408.457 54.3665 407.461 54.7637 406.641C55.1608 405.814 55.7272 405.186 56.4629 404.756C57.2051 404.32 58.0872 404.102 59.1094 404.102C60.0859 404.102 60.9388 404.32 61.668 404.756C62.4036 405.192 62.9733 405.824 63.377 406.65C63.7871 407.471 63.9922 408.464 63.9922 409.629ZM55.8477 409.629C55.8477 410.488 55.9616 411.234 56.1895 411.865C56.4173 412.497 56.7689 412.985 57.2441 413.33C57.7194 413.675 58.3314 413.848 59.0801 413.848C59.8223 413.848 60.431 413.675 60.9062 413.33C61.388 412.985 61.7428 412.497 61.9707 411.865C62.1986 411.234 62.3125 410.488 62.3125 409.629C62.3125 408.776 62.1986 408.04 61.9707 407.422C61.7428 406.797 61.3913 406.315 60.916 405.977C60.4408 405.638 59.8255 405.469 59.0703 405.469C57.957 405.469 57.14 405.837 56.6191 406.572C56.1048 407.308 55.8477 408.327 55.8477 409.629ZM75.7598 404.297V415H74.1289V405.693H68.4258V415H66.7949V404.297H75.7598ZM85.4375 404.297H87.2246L82.6055 409.463L87.5957 415H85.6914L80.8281 409.57V415H79.1973V404.297H80.8281V409.492L85.4375 404.297ZM93.5332 404.121C94.8092 404.121 95.7565 404.408 96.375 404.98C96.9935 405.553 97.3027 406.468 97.3027 407.725V415H96.1211L95.8086 413.418H95.7305C95.431 413.809 95.1185 414.137 94.793 414.404C94.4674 414.665 94.0898 414.863 93.6602 415C93.237 415.13 92.7161 415.195 92.0977 415.195C91.4466 415.195 90.8672 415.081 90.3594 414.854C89.8581 414.626 89.4609 414.281 89.168 413.818C88.8815 413.356 88.7383 412.77 88.7383 412.061C88.7383 410.993 89.1615 410.173 90.0078 409.6C90.8542 409.027 92.1432 408.714 93.875 408.662L95.7207 408.584V407.93C95.7207 407.005 95.5221 406.357 95.125 405.986C94.7279 405.615 94.168 405.43 93.4453 405.43C92.8854 405.43 92.3516 405.511 91.8438 405.674C91.3359 405.837 90.8542 406.029 90.3984 406.25L89.9004 405.02C90.3822 404.772 90.9355 404.561 91.5605 404.385C92.1855 404.209 92.8431 404.121 93.5332 404.121ZM95.7012 409.727L94.0703 409.795C92.7357 409.847 91.7949 410.065 91.248 410.449C90.7012 410.833 90.4277 411.377 90.4277 412.08C90.4277 412.692 90.6133 413.145 90.9844 413.438C91.3555 413.73 91.847 413.877 92.459 413.877C93.4095 413.877 94.1875 413.613 94.793 413.086C95.3984 412.559 95.7012 411.768 95.7012 410.713V409.727Z" fill="#09A494"/>
<rect x="0.5" y="497.5" width="189" height="89" rx="4.5" stroke="#9747FF" stroke-dasharray="10 5"/>
<rect x="120.5" y="517.5" width="49" height="49" rx="24.5" fill="#09A494"/>
<rect x="120.5" y="517.5" width="49" height="49" rx="24.5" stroke="#09A494"/>
<path d="M144.5 530C137.608 530 132 535.608 132 542.5C132 549.392 137.608 555 144.5 555C151.392 555 157 549.392 157 542.5C157 535.608 151.392 530 144.5 530ZM144.5 531.875C150.379 531.875 155.125 536.621 155.125 542.5C155.125 547.291 151.973 551.327 147.625 552.657V549.46C147.625 548.267 146.937 547.243 145.943 546.733C146.91 546.548 147.807 546.182 148.561 545.664C149.315 545.146 149.904 544.491 150.279 543.755C150.653 543.018 150.803 542.221 150.715 541.429C150.627 540.637 150.304 539.873 149.773 539.2C150.051 538.347 150.36 536.85 149.625 535.673C148.206 535.673 147.29 536.645 146.854 537.25C146.107 537.004 145.307 536.877 144.5 536.875C143.692 536.876 142.892 537.002 142.144 537.246C141.706 536.641 140.791 535.673 139.375 535.673C138.531 537.024 139.053 538.478 139.333 539.071C138.766 539.74 138.411 540.51 138.297 541.313C138.184 542.116 138.315 542.93 138.681 543.683C139.047 544.437 139.635 545.109 140.396 545.641C141.157 546.172 142.068 546.549 143.051 546.737C142.235 547.158 141.623 547.921 141.436 548.848H140.615C139.804 548.848 139.489 548.518 139.051 547.963C138.618 547.407 138.153 547.034 137.594 546.879C137.293 546.847 137.09 547.076 137.353 547.279C138.24 547.883 138.301 548.871 138.656 549.518C138.98 550.1 139.644 550.625 140.394 550.625H141.375V552.657C137.027 551.327 133.875 547.291 133.875 542.5C133.875 536.621 138.621 531.875 144.5 531.875Z" fill="black"/>
<rect x="20.5" y="517.5" width="49" height="49" rx="24.5" stroke="#09A494"/>
<path d="M44.5 530C37.6075 530 32 535.608 32 542.5C32 549.392 37.6075 555 44.5 555C51.3925 555 57 549.392 57 542.5C57 535.608 51.3925 530 44.5 530ZM44.5 531.875C50.3791 531.875 55.125 536.621 55.125 542.5C55.125 547.291 51.9731 551.327 47.625 552.657V549.46C47.625 548.267 46.9371 547.243 45.9429 546.733C46.9096 546.548 47.8072 546.182 48.5612 545.664C49.3153 545.146 49.904 544.491 50.2785 543.755C50.6531 543.018 50.8026 542.221 50.7148 541.429C50.6269 540.637 50.3042 539.873 49.7734 539.2C50.0507 538.347 50.3603 536.85 49.6245 535.673C48.2058 535.673 47.2904 536.645 46.8535 537.25C46.1066 537.004 45.3074 536.877 44.5 536.875C43.6921 536.876 42.892 537.002 42.144 537.246C41.7061 536.641 40.7914 535.673 39.3755 535.673C38.5311 537.024 39.0531 538.478 39.3328 539.071C38.7661 539.74 38.4108 540.51 38.2973 541.313C38.1837 542.116 38.3154 542.93 38.681 543.683C39.0465 544.437 39.6351 545.109 40.3962 545.641C41.1573 546.172 42.0683 546.549 43.051 546.737C42.2347 547.158 41.6233 547.921 41.436 548.848H40.6145C39.8039 548.848 39.4889 548.518 39.0508 547.963C38.6183 547.407 38.1532 547.034 37.5945 546.879C37.2932 546.847 37.0903 547.076 37.3528 547.279C38.2397 547.883 38.3009 548.871 38.6565 549.518C38.9802 550.1 39.6436 550.625 40.3936 550.625H41.375V552.657C37.0269 551.327 33.875 547.291 33.875 542.5C33.875 536.621 38.6209 531.875 44.5 531.875Z" fill="black"/>
<rect x="0.5" y="637.5" width="495" height="69" rx="4.5" stroke="#9747FF" stroke-dasharray="10 5"/>
<path d="M47.3633 661.453H22.6367C21.1858 661.453 20 662.634 20 664.09V679.91C20 681.367 21.1866 682.547 22.6367 682.547H47.3633C48.8142 682.547 50 681.366 50 679.91V664.09C50 662.633 48.8136 661.453 47.3633 661.453ZM46.9584 663.211L35.6811 674.525C35.3375 674.87 34.6627 674.87 34.3189 674.525L23.0416 663.211H46.9584ZM21.7578 679.587V664.413L29.3202 672L21.7578 679.587ZM23.0416 680.789L30.5612 673.245L33.074 675.766C34.1037 676.799 35.8967 676.799 36.9261 675.766L39.4389 673.245L46.9584 680.789H23.0416ZM48.2422 679.587L40.6798 672L48.2422 664.413V679.587Z" fill="#212121"/>
<path d="M68.3672 672.285H72.3906V673.613H68.3672V677.754H67.0293V673.613H63.0059V672.285H67.0293V668.125H68.3672V672.285ZM76.2773 680L82.1367 667.207H74.3535V665.723H83.875V666.973L78.0547 680H76.2773ZM100.447 671.807C100.447 672.673 100.385 673.516 100.262 674.336C100.145 675.156 99.9395 675.921 99.6465 676.631C99.36 677.34 98.9694 677.962 98.4746 678.496C97.9798 679.03 97.3581 679.45 96.6094 679.756C95.8672 680.055 94.9785 680.205 93.9434 680.205C93.6634 680.205 93.3444 680.186 92.9863 680.146C92.6283 680.114 92.3353 680.065 92.1074 680V678.594C92.3483 678.678 92.6315 678.747 92.957 678.799C93.2826 678.844 93.6016 678.867 93.9141 678.867C95.1315 678.867 96.0885 678.607 96.7852 678.086C97.4818 677.559 97.9831 676.846 98.2891 675.947C98.5951 675.042 98.7676 674.027 98.8066 672.9H98.6895C98.4941 673.213 98.237 673.503 97.918 673.77C97.6055 674.03 97.2246 674.242 96.7754 674.404C96.3262 674.561 95.8021 674.639 95.2031 674.639C94.3763 674.639 93.6536 674.469 93.0352 674.131C92.4232 673.792 91.9447 673.301 91.5996 672.656C91.2611 672.012 91.0918 671.234 91.0918 670.322C91.0918 669.339 91.2773 668.49 91.6484 667.773C92.026 667.051 92.5534 666.494 93.2305 666.104C93.9076 665.713 94.7051 665.518 95.623 665.518C96.3262 665.518 96.9707 665.651 97.5566 665.918C98.1426 666.185 98.6504 666.585 99.0801 667.119C99.5163 667.646 99.8516 668.301 100.086 669.082C100.327 669.863 100.447 670.771 100.447 671.807ZM95.623 666.895C94.7572 666.895 94.054 667.178 93.5137 667.744C92.9798 668.311 92.7129 669.163 92.7129 670.303C92.7129 671.247 92.944 671.992 93.4062 672.539C93.8685 673.086 94.5814 673.359 95.5449 673.359C96.209 673.359 96.7819 673.226 97.2637 672.959C97.752 672.692 98.1263 672.354 98.3867 671.943C98.6536 671.533 98.7871 671.113 98.7871 670.684C98.7871 670.254 98.722 669.818 98.5918 669.375C98.4681 668.932 98.276 668.525 98.0156 668.154C97.7552 667.777 97.4264 667.474 97.0293 667.246C96.6322 667.012 96.1634 666.895 95.623 666.895ZM111.893 671.807C111.893 672.673 111.831 673.516 111.707 674.336C111.59 675.156 111.385 675.921 111.092 676.631C110.805 677.34 110.415 677.962 109.92 678.496C109.425 679.03 108.803 679.45 108.055 679.756C107.312 680.055 106.424 680.205 105.389 680.205C105.109 680.205 104.79 680.186 104.432 680.146C104.074 680.114 103.781 680.065 103.553 680V678.594C103.794 678.678 104.077 678.747 104.402 678.799C104.728 678.844 105.047 678.867 105.359 678.867C106.577 678.867 107.534 678.607 108.23 678.086C108.927 677.559 109.428 676.846 109.734 675.947C110.04 675.042 110.213 674.027 110.252 672.9H110.135C109.939 673.213 109.682 673.503 109.363 673.77C109.051 674.03 108.67 674.242 108.221 674.404C107.771 674.561 107.247 674.639 106.648 674.639C105.822 674.639 105.099 674.469 104.48 674.131C103.868 673.792 103.39 673.301 103.045 672.656C102.706 672.012 102.537 671.234 102.537 670.322C102.537 669.339 102.723 668.49 103.094 667.773C103.471 667.051 103.999 666.494 104.676 666.104C105.353 665.713 106.15 665.518 107.068 665.518C107.771 665.518 108.416 665.651 109.002 665.918C109.588 666.185 110.096 666.585 110.525 667.119C110.962 667.646 111.297 668.301 111.531 669.082C111.772 669.863 111.893 670.771 111.893 671.807ZM107.068 666.895C106.202 666.895 105.499 667.178 104.959 667.744C104.425 668.311 104.158 669.163 104.158 670.303C104.158 671.247 104.389 671.992 104.852 672.539C105.314 673.086 106.027 673.359 106.99 673.359C107.654 673.359 108.227 673.226 108.709 672.959C109.197 672.692 109.572 672.354 109.832 671.943C110.099 671.533 110.232 671.113 110.232 670.684C110.232 670.254 110.167 669.818 110.037 669.375C109.913 668.932 109.721 668.525 109.461 668.154C109.201 667.777 108.872 667.474 108.475 667.246C108.077 667.012 107.609 666.895 107.068 666.895ZM123.338 671.807C123.338 672.673 123.276 673.516 123.152 674.336C123.035 675.156 122.83 675.921 122.537 676.631C122.251 677.34 121.86 677.962 121.365 678.496C120.87 679.03 120.249 679.45 119.5 679.756C118.758 680.055 117.869 680.205 116.834 680.205C116.554 680.205 116.235 680.186 115.877 680.146C115.519 680.114 115.226 680.065 114.998 680V678.594C115.239 678.678 115.522 678.747 115.848 678.799C116.173 678.844 116.492 678.867 116.805 678.867C118.022 678.867 118.979 678.607 119.676 678.086C120.372 677.559 120.874 676.846 121.18 675.947C121.486 675.042 121.658 674.027 121.697 672.9H121.58C121.385 673.213 121.128 673.503 120.809 673.77C120.496 674.03 120.115 674.242 119.666 674.404C119.217 674.561 118.693 674.639 118.094 674.639C117.267 674.639 116.544 674.469 115.926 674.131C115.314 673.792 114.835 673.301 114.49 672.656C114.152 672.012 113.982 671.234 113.982 670.322C113.982 669.339 114.168 668.49 114.539 667.773C114.917 667.051 115.444 666.494 116.121 666.104C116.798 665.713 117.596 665.518 118.514 665.518C119.217 665.518 119.861 665.651 120.447 665.918C121.033 666.185 121.541 666.585 121.971 667.119C122.407 667.646 122.742 668.301 122.977 669.082C123.217 669.863 123.338 670.771 123.338 671.807ZM118.514 666.895C117.648 666.895 116.945 667.178 116.404 667.744C115.87 668.311 115.604 669.163 115.604 670.303C115.604 671.247 115.835 671.992 116.297 672.539C116.759 673.086 117.472 673.359 118.436 673.359C119.1 673.359 119.673 673.226 120.154 672.959C120.643 672.692 121.017 672.354 121.277 671.943C121.544 671.533 121.678 671.113 121.678 670.684C121.678 670.254 121.613 669.818 121.482 669.375C121.359 668.932 121.167 668.525 120.906 668.154C120.646 667.777 120.317 667.474 119.92 667.246C119.523 667.012 119.054 666.895 118.514 666.895ZM136.639 680H135.057V669.883C135.057 669.499 135.057 669.17 135.057 668.896C135.063 668.617 135.07 668.363 135.076 668.135C135.089 667.9 135.105 667.663 135.125 667.422C134.923 667.63 134.734 667.809 134.559 667.959C134.383 668.102 134.165 668.281 133.904 668.496L132.273 669.805L131.424 668.701L135.291 665.723H136.639V680ZM151.404 680H142.049V678.643L145.867 674.766C146.577 674.049 147.173 673.411 147.654 672.852C148.143 672.292 148.514 671.742 148.768 671.201C149.021 670.654 149.148 670.055 149.148 669.404C149.148 668.597 148.908 667.982 148.426 667.559C147.951 667.129 147.322 666.914 146.541 666.914C145.857 666.914 145.252 667.031 144.725 667.266C144.197 667.5 143.657 667.832 143.104 668.262L142.234 667.168C142.612 666.849 143.022 666.566 143.465 666.318C143.914 666.071 144.393 665.876 144.9 665.732C145.415 665.589 145.962 665.518 146.541 665.518C147.42 665.518 148.178 665.671 148.816 665.977C149.454 666.283 149.946 666.719 150.291 667.285C150.643 667.852 150.818 668.525 150.818 669.307C150.818 670.062 150.669 670.765 150.369 671.416C150.07 672.061 149.65 672.702 149.109 673.34C148.569 673.971 147.938 674.642 147.215 675.352L144.109 678.447V678.516H151.404V680ZM162.322 669.053C162.322 669.691 162.199 670.244 161.951 670.713C161.704 671.182 161.359 671.566 160.916 671.865C160.473 672.158 159.952 672.363 159.354 672.48V672.559C160.486 672.702 161.336 673.066 161.902 673.652C162.475 674.238 162.762 675.007 162.762 675.957C162.762 676.784 162.566 677.516 162.176 678.154C161.792 678.792 161.199 679.294 160.398 679.658C159.604 680.016 158.585 680.195 157.342 680.195C156.587 680.195 155.887 680.133 155.242 680.01C154.604 679.893 153.992 679.694 153.406 679.414V677.891C153.999 678.184 154.643 678.415 155.34 678.584C156.036 678.747 156.71 678.828 157.361 678.828C158.663 678.828 159.604 678.571 160.184 678.057C160.763 677.536 161.053 676.826 161.053 675.928C161.053 675.309 160.89 674.811 160.564 674.434C160.245 674.049 159.783 673.77 159.178 673.594C158.579 673.411 157.856 673.32 157.01 673.32H155.584V671.934H157.02C157.794 671.934 158.452 671.82 158.992 671.592C159.533 671.364 159.943 671.045 160.223 670.635C160.509 670.218 160.652 669.727 160.652 669.16C160.652 668.438 160.411 667.881 159.93 667.49C159.448 667.093 158.794 666.895 157.967 666.895C157.459 666.895 156.997 666.947 156.58 667.051C156.163 667.155 155.773 667.298 155.408 667.48C155.044 667.663 154.679 667.874 154.314 668.115L153.494 667.002C154.015 666.598 154.65 666.25 155.398 665.957C156.147 665.664 156.997 665.518 157.947 665.518C159.406 665.518 160.499 665.85 161.229 666.514C161.958 667.178 162.322 668.024 162.322 669.053ZM164.754 675.352V673.906H169.598V675.352H164.754ZM181.453 676.689H179.314V680H177.732V676.689H170.828V675.322L177.625 665.645H179.314V675.225H181.453V676.689ZM177.732 675.225V670.557C177.732 670.199 177.736 669.876 177.742 669.59C177.749 669.297 177.758 669.027 177.771 668.779C177.785 668.525 177.794 668.285 177.801 668.057C177.814 667.829 177.824 667.604 177.83 667.383H177.752C177.628 667.643 177.485 667.92 177.322 668.213C177.166 668.499 177.007 668.757 176.844 668.984L172.439 675.225H177.732ZM187.342 671.27C188.312 671.27 189.155 671.436 189.871 671.768C190.587 672.093 191.141 672.568 191.531 673.193C191.928 673.818 192.127 674.577 192.127 675.469C192.127 676.445 191.915 677.288 191.492 677.998C191.069 678.701 190.46 679.245 189.666 679.629C188.872 680.007 187.921 680.195 186.814 680.195C186.072 680.195 185.382 680.13 184.744 680C184.106 679.87 183.569 679.674 183.133 679.414V677.871C183.608 678.158 184.184 678.385 184.861 678.555C185.538 678.724 186.196 678.809 186.834 678.809C187.557 678.809 188.188 678.695 188.729 678.467C189.275 678.232 189.699 677.881 189.998 677.412C190.304 676.937 190.457 676.341 190.457 675.625C190.457 674.674 190.164 673.942 189.578 673.428C188.999 672.907 188.081 672.646 186.824 672.646C186.421 672.646 185.978 672.679 185.496 672.744C185.014 672.809 184.617 672.881 184.305 672.959L183.484 672.422L184.031 665.723H191.131V667.207H185.418L185.057 671.514C185.304 671.462 185.623 671.41 186.014 671.357C186.404 671.299 186.847 671.27 187.342 671.27ZM194.09 675.352V673.906H198.934V675.352H194.09ZM200.867 673.896C200.867 673.037 200.926 672.197 201.043 671.377C201.167 670.557 201.372 669.795 201.658 669.092C201.945 668.382 202.335 667.76 202.83 667.227C203.325 666.693 203.94 666.276 204.676 665.977C205.418 665.671 206.307 665.518 207.342 665.518C207.635 665.518 207.951 665.534 208.289 665.566C208.628 665.592 208.908 665.638 209.129 665.703V667.1C208.888 667.015 208.611 666.953 208.299 666.914C207.993 666.875 207.684 666.855 207.371 666.855C206.16 666.855 205.206 667.119 204.51 667.646C203.82 668.174 203.322 668.89 203.016 669.795C202.71 670.693 202.534 671.706 202.488 672.832H202.596C202.798 672.507 203.055 672.214 203.367 671.953C203.68 671.686 204.057 671.475 204.5 671.318C204.949 671.162 205.47 671.084 206.062 671.084C206.896 671.084 207.622 671.253 208.24 671.592C208.865 671.93 209.347 672.422 209.686 673.066C210.031 673.711 210.203 674.492 210.203 675.41C210.203 676.393 210.021 677.243 209.656 677.959C209.292 678.675 208.771 679.229 208.094 679.619C207.423 680.003 206.622 680.195 205.691 680.195C204.995 680.195 204.354 680.062 203.768 679.795C203.182 679.528 202.671 679.131 202.234 678.604C201.805 678.076 201.469 677.422 201.229 676.641C200.988 675.853 200.867 674.938 200.867 673.896ZM205.672 678.828C206.557 678.828 207.267 678.545 207.801 677.979C208.335 677.412 208.602 676.556 208.602 675.41C208.602 674.473 208.364 673.73 207.889 673.184C207.413 672.637 206.697 672.363 205.74 672.363C205.089 672.363 204.523 672.5 204.041 672.773C203.559 673.04 203.185 673.379 202.918 673.789C202.651 674.199 202.518 674.616 202.518 675.039C202.518 675.469 202.579 675.905 202.703 676.348C202.833 676.79 203.029 677.201 203.289 677.578C203.549 677.956 203.878 678.258 204.275 678.486C204.673 678.714 205.138 678.828 205.672 678.828ZM214.012 680L219.871 667.207H212.088V665.723H221.609V666.973L215.789 680H214.012Z" fill="#212121"/>
<path d="M300.363 661.453H275.637C274.186 661.453 273 662.634 273 664.09V679.91C273 681.367 274.187 682.547 275.637 682.547H300.363C301.814 682.547 303 681.366 303 679.91V664.09C303 662.633 301.814 661.453 300.363 661.453ZM299.958 663.211L288.681 674.525C288.337 674.87 287.663 674.87 287.319 674.525L276.042 663.211H299.958ZM274.758 679.587V664.413L282.32 672L274.758 679.587ZM276.042 680.789L283.561 673.245L286.074 675.766C287.104 676.799 288.897 676.799 289.926 675.766L292.439 673.245L299.958 680.789H276.042ZM301.242 679.587L293.68 672L301.242 664.413V679.587Z" fill="#212121"/>
<path d="M321.367 672.285H325.391V673.613H321.367V677.754H320.029V673.613H316.006V672.285H320.029V668.125H321.367V672.285ZM329.277 680L335.137 667.207H327.354V665.723H336.875V666.973L331.055 680H329.277ZM353.447 671.807C353.447 672.673 353.385 673.516 353.262 674.336C353.145 675.156 352.939 675.921 352.646 676.631C352.36 677.34 351.969 677.962 351.475 678.496C350.98 679.03 350.358 679.45 349.609 679.756C348.867 680.055 347.979 680.205 346.943 680.205C346.663 680.205 346.344 680.186 345.986 680.146C345.628 680.114 345.335 680.065 345.107 680V678.594C345.348 678.678 345.632 678.747 345.957 678.799C346.283 678.844 346.602 678.867 346.914 678.867C348.132 678.867 349.089 678.607 349.785 678.086C350.482 677.559 350.983 676.846 351.289 675.947C351.595 675.042 351.768 674.027 351.807 672.9H351.689C351.494 673.213 351.237 673.503 350.918 673.77C350.605 674.03 350.225 674.242 349.775 674.404C349.326 674.561 348.802 674.639 348.203 674.639C347.376 674.639 346.654 674.469 346.035 674.131C345.423 673.792 344.945 673.301 344.6 672.656C344.261 672.012 344.092 671.234 344.092 670.322C344.092 669.339 344.277 668.49 344.648 667.773C345.026 667.051 345.553 666.494 346.23 666.104C346.908 665.713 347.705 665.518 348.623 665.518C349.326 665.518 349.971 665.651 350.557 665.918C351.143 666.185 351.65 666.585 352.08 667.119C352.516 667.646 352.852 668.301 353.086 669.082C353.327 669.863 353.447 670.771 353.447 671.807ZM348.623 666.895C347.757 666.895 347.054 667.178 346.514 667.744C345.98 668.311 345.713 669.163 345.713 670.303C345.713 671.247 345.944 671.992 346.406 672.539C346.868 673.086 347.581 673.359 348.545 673.359C349.209 673.359 349.782 673.226 350.264 672.959C350.752 672.692 351.126 672.354 351.387 671.943C351.654 671.533 351.787 671.113 351.787 670.684C351.787 670.254 351.722 669.818 351.592 669.375C351.468 668.932 351.276 668.525 351.016 668.154C350.755 667.777 350.426 667.474 350.029 667.246C349.632 667.012 349.163 666.895 348.623 666.895ZM364.893 671.807C364.893 672.673 364.831 673.516 364.707 674.336C364.59 675.156 364.385 675.921 364.092 676.631C363.805 677.34 363.415 677.962 362.92 678.496C362.425 679.03 361.803 679.45 361.055 679.756C360.312 680.055 359.424 680.205 358.389 680.205C358.109 680.205 357.79 680.186 357.432 680.146C357.074 680.114 356.781 680.065 356.553 680V678.594C356.794 678.678 357.077 678.747 357.402 678.799C357.728 678.844 358.047 678.867 358.359 678.867C359.577 678.867 360.534 678.607 361.23 678.086C361.927 677.559 362.428 676.846 362.734 675.947C363.04 675.042 363.213 674.027 363.252 672.9H363.135C362.939 673.213 362.682 673.503 362.363 673.77C362.051 674.03 361.67 674.242 361.221 674.404C360.771 674.561 360.247 674.639 359.648 674.639C358.822 674.639 358.099 674.469 357.48 674.131C356.868 673.792 356.39 673.301 356.045 672.656C355.706 672.012 355.537 671.234 355.537 670.322C355.537 669.339 355.723 668.49 356.094 667.773C356.471 667.051 356.999 666.494 357.676 666.104C358.353 665.713 359.15 665.518 360.068 665.518C360.771 665.518 361.416 665.651 362.002 665.918C362.588 666.185 363.096 666.585 363.525 667.119C363.962 667.646 364.297 668.301 364.531 669.082C364.772 669.863 364.893 670.771 364.893 671.807ZM360.068 666.895C359.202 666.895 358.499 667.178 357.959 667.744C357.425 668.311 357.158 669.163 357.158 670.303C357.158 671.247 357.389 671.992 357.852 672.539C358.314 673.086 359.027 673.359 359.99 673.359C360.654 673.359 361.227 673.226 361.709 672.959C362.197 672.692 362.572 672.354 362.832 671.943C363.099 671.533 363.232 671.113 363.232 670.684C363.232 670.254 363.167 669.818 363.037 669.375C362.913 668.932 362.721 668.525 362.461 668.154C362.201 667.777 361.872 667.474 361.475 667.246C361.077 667.012 360.609 666.895 360.068 666.895ZM376.338 671.807C376.338 672.673 376.276 673.516 376.152 674.336C376.035 675.156 375.83 675.921 375.537 676.631C375.251 677.34 374.86 677.962 374.365 678.496C373.87 679.03 373.249 679.45 372.5 679.756C371.758 680.055 370.869 680.205 369.834 680.205C369.554 680.205 369.235 680.186 368.877 680.146C368.519 680.114 368.226 680.065 367.998 680V678.594C368.239 678.678 368.522 678.747 368.848 678.799C369.173 678.844 369.492 678.867 369.805 678.867C371.022 678.867 371.979 678.607 372.676 678.086C373.372 677.559 373.874 676.846 374.18 675.947C374.486 675.042 374.658 674.027 374.697 672.9H374.58C374.385 673.213 374.128 673.503 373.809 673.77C373.496 674.03 373.115 674.242 372.666 674.404C372.217 674.561 371.693 674.639 371.094 674.639C370.267 674.639 369.544 674.469 368.926 674.131C368.314 673.792 367.835 673.301 367.49 672.656C367.152 672.012 366.982 671.234 366.982 670.322C366.982 669.339 367.168 668.49 367.539 667.773C367.917 667.051 368.444 666.494 369.121 666.104C369.798 665.713 370.596 665.518 371.514 665.518C372.217 665.518 372.861 665.651 373.447 665.918C374.033 666.185 374.541 666.585 374.971 667.119C375.407 667.646 375.742 668.301 375.977 669.082C376.217 669.863 376.338 670.771 376.338 671.807ZM371.514 666.895C370.648 666.895 369.945 667.178 369.404 667.744C368.87 668.311 368.604 669.163 368.604 670.303C368.604 671.247 368.835 671.992 369.297 672.539C369.759 673.086 370.472 673.359 371.436 673.359C372.1 673.359 372.673 673.226 373.154 672.959C373.643 672.692 374.017 672.354 374.277 671.943C374.544 671.533 374.678 671.113 374.678 670.684C374.678 670.254 374.613 669.818 374.482 669.375C374.359 668.932 374.167 668.525 373.906 668.154C373.646 667.777 373.317 667.474 372.92 667.246C372.523 667.012 372.054 666.895 371.514 666.895ZM389.639 680H388.057V669.883C388.057 669.499 388.057 669.17 388.057 668.896C388.063 668.617 388.07 668.363 388.076 668.135C388.089 667.9 388.105 667.663 388.125 667.422C387.923 667.63 387.734 667.809 387.559 667.959C387.383 668.102 387.165 668.281 386.904 668.496L385.273 669.805L384.424 668.701L388.291 665.723H389.639V680ZM404.404 680H395.049V678.643L398.867 674.766C399.577 674.049 400.173 673.411 400.654 672.852C401.143 672.292 401.514 671.742 401.768 671.201C402.021 670.654 402.148 670.055 402.148 669.404C402.148 668.597 401.908 667.982 401.426 667.559C400.951 667.129 400.322 666.914 399.541 666.914C398.857 666.914 398.252 667.031 397.725 667.266C397.197 667.5 396.657 667.832 396.104 668.262L395.234 667.168C395.612 666.849 396.022 666.566 396.465 666.318C396.914 666.071 397.393 665.876 397.9 665.732C398.415 665.589 398.962 665.518 399.541 665.518C400.42 665.518 401.178 665.671 401.816 665.977C402.454 666.283 402.946 666.719 403.291 667.285C403.643 667.852 403.818 668.525 403.818 669.307C403.818 670.062 403.669 670.765 403.369 671.416C403.07 672.061 402.65 672.702 402.109 673.34C401.569 673.971 400.938 674.642 400.215 675.352L397.109 678.447V678.516H404.404V680ZM415.322 669.053C415.322 669.691 415.199 670.244 414.951 670.713C414.704 671.182 414.359 671.566 413.916 671.865C413.473 672.158 412.952 672.363 412.354 672.48V672.559C413.486 672.702 414.336 673.066 414.902 673.652C415.475 674.238 415.762 675.007 415.762 675.957C415.762 676.784 415.566 677.516 415.176 678.154C414.792 678.792 414.199 679.294 413.398 679.658C412.604 680.016 411.585 680.195 410.342 680.195C409.587 680.195 408.887 680.133 408.242 680.01C407.604 679.893 406.992 679.694 406.406 679.414V677.891C406.999 678.184 407.643 678.415 408.34 678.584C409.036 678.747 409.71 678.828 410.361 678.828C411.663 678.828 412.604 678.571 413.184 678.057C413.763 677.536 414.053 676.826 414.053 675.928C414.053 675.309 413.89 674.811 413.564 674.434C413.245 674.049 412.783 673.77 412.178 673.594C411.579 673.411 410.856 673.32 410.01 673.32H408.584V671.934H410.02C410.794 671.934 411.452 671.82 411.992 671.592C412.533 671.364 412.943 671.045 413.223 670.635C413.509 670.218 413.652 669.727 413.652 669.16C413.652 668.438 413.411 667.881 412.93 667.49C412.448 667.093 411.794 666.895 410.967 666.895C410.459 666.895 409.997 666.947 409.58 667.051C409.163 667.155 408.773 667.298 408.408 667.48C408.044 667.663 407.679 667.874 407.314 668.115L406.494 667.002C407.015 666.598 407.65 666.25 408.398 665.957C409.147 665.664 409.997 665.518 410.947 665.518C412.406 665.518 413.499 665.85 414.229 666.514C414.958 667.178 415.322 668.024 415.322 669.053ZM417.754 675.352V673.906H422.598V675.352H417.754ZM434.453 676.689H432.314V680H430.732V676.689H423.828V675.322L430.625 665.645H432.314V675.225H434.453V676.689ZM430.732 675.225V670.557C430.732 670.199 430.736 669.876 430.742 669.59C430.749 669.297 430.758 669.027 430.771 668.779C430.785 668.525 430.794 668.285 430.801 668.057C430.814 667.829 430.824 667.604 430.83 667.383H430.752C430.628 667.643 430.485 667.92 430.322 668.213C430.166 668.499 430.007 668.757 429.844 668.984L425.439 675.225H430.732ZM440.342 671.27C441.312 671.27 442.155 671.436 442.871 671.768C443.587 672.093 444.141 672.568 444.531 673.193C444.928 673.818 445.127 674.577 445.127 675.469C445.127 676.445 444.915 677.288 444.492 677.998C444.069 678.701 443.46 679.245 442.666 679.629C441.872 680.007 440.921 680.195 439.814 680.195C439.072 680.195 438.382 680.13 437.744 680C437.106 679.87 436.569 679.674 436.133 679.414V677.871C436.608 678.158 437.184 678.385 437.861 678.555C438.538 678.724 439.196 678.809 439.834 678.809C440.557 678.809 441.188 678.695 441.729 678.467C442.275 678.232 442.699 677.881 442.998 677.412C443.304 676.937 443.457 676.341 443.457 675.625C443.457 674.674 443.164 673.942 442.578 673.428C441.999 672.907 441.081 672.646 439.824 672.646C439.421 672.646 438.978 672.679 438.496 672.744C438.014 672.809 437.617 672.881 437.305 672.959L436.484 672.422L437.031 665.723H444.131V667.207H438.418L438.057 671.514C438.304 671.462 438.623 671.41 439.014 671.357C439.404 671.299 439.847 671.27 440.342 671.27ZM447.09 675.352V673.906H451.934V675.352H447.09ZM453.867 673.896C453.867 673.037 453.926 672.197 454.043 671.377C454.167 670.557 454.372 669.795 454.658 669.092C454.945 668.382 455.335 667.76 455.83 667.227C456.325 666.693 456.94 666.276 457.676 665.977C458.418 665.671 459.307 665.518 460.342 665.518C460.635 665.518 460.951 665.534 461.289 665.566C461.628 665.592 461.908 665.638 462.129 665.703V667.1C461.888 667.015 461.611 666.953 461.299 666.914C460.993 666.875 460.684 666.855 460.371 666.855C459.16 666.855 458.206 667.119 457.51 667.646C456.82 668.174 456.322 668.89 456.016 669.795C455.71 670.693 455.534 671.706 455.488 672.832H455.596C455.798 672.507 456.055 672.214 456.367 671.953C456.68 671.686 457.057 671.475 457.5 671.318C457.949 671.162 458.47 671.084 459.062 671.084C459.896 671.084 460.622 671.253 461.24 671.592C461.865 671.93 462.347 672.422 462.686 673.066C463.031 673.711 463.203 674.492 463.203 675.41C463.203 676.393 463.021 677.243 462.656 677.959C462.292 678.675 461.771 679.229 461.094 679.619C460.423 680.003 459.622 680.195 458.691 680.195C457.995 680.195 457.354 680.062 456.768 679.795C456.182 679.528 455.671 679.131 455.234 678.604C454.805 678.076 454.469 677.422 454.229 676.641C453.988 675.853 453.867 674.938 453.867 673.896ZM458.672 678.828C459.557 678.828 460.267 678.545 460.801 677.979C461.335 677.412 461.602 676.556 461.602 675.41C461.602 674.473 461.364 673.73 460.889 673.184C460.413 672.637 459.697 672.363 458.74 672.363C458.089 672.363 457.523 672.5 457.041 672.773C456.559 673.04 456.185 673.379 455.918 673.789C455.651 674.199 455.518 674.616 455.518 675.039C455.518 675.469 455.579 675.905 455.703 676.348C455.833 676.79 456.029 677.201 456.289 677.578C456.549 677.956 456.878 678.258 457.275 678.486C457.673 678.714 458.138 678.828 458.672 678.828ZM467.012 680L472.871 667.207H465.088V665.723H474.609V666.973L468.789 680H467.012Z" fill="#09A494"/>
</svg>
