<svg width="819" height="379" viewBox="0 0 819 379" fill="none" xmlns="http://www.w3.org/2000/svg">
<path d="M3.27344 11.3125L7.84375 3.625H10.1875V15H7.84375V7.3125L3.27344 15H0.929688V3.625H3.27344V11.3125ZM14.4766 6.54688V15H12.2266V6.54688H14.4766ZM19.9688 6.54688L16.3281 11.8359H14.0781L13.8047 9.75781H15.2969L17.1172 6.54688H19.9688ZM17.2188 15L15.1406 11.4297L17.1016 10.3438L20.2344 15H17.2188ZM20.3594 10.8594V10.6953C20.3594 10.0755 20.4479 9.50521 20.625 8.98438C20.8021 8.45833 21.0599 8.0026 21.3984 7.61719C21.737 7.23177 22.1536 6.93229 22.6484 6.71875C23.1432 6.5 23.7109 6.39062 24.3516 6.39062C24.9922 6.39062 25.5625 6.5 26.0625 6.71875C26.5625 6.93229 26.9818 7.23177 27.3203 7.61719C27.6641 8.0026 27.9245 8.45833 28.1016 8.98438C28.2786 9.50521 28.3672 10.0755 28.3672 10.6953V10.8594C28.3672 11.474 28.2786 12.0443 28.1016 12.5703C27.9245 13.0911 27.6641 13.5469 27.3203 13.9375C26.9818 14.3229 26.5651 14.6224 26.0703 14.8359C25.5755 15.0495 25.0078 15.1562 24.3672 15.1562C23.7266 15.1562 23.1562 15.0495 22.6562 14.8359C22.1615 14.6224 21.7422 14.3229 21.3984 13.9375C21.0599 13.5469 20.8021 13.0911 20.625 12.5703C20.4479 12.0443 20.3594 11.474 20.3594 10.8594ZM22.6094 10.6953V10.8594C22.6094 11.2135 22.6406 11.5443 22.7031 11.8516C22.7656 12.1589 22.8646 12.4297 23 12.6641C23.1406 12.8932 23.3229 13.0729 23.5469 13.2031C23.7708 13.3333 24.0443 13.3984 24.3672 13.3984C24.6797 13.3984 24.9479 13.3333 25.1719 13.2031C25.3958 13.0729 25.5755 12.8932 25.7109 12.6641C25.8464 12.4297 25.9453 12.1589 26.0078 11.8516C26.0755 11.5443 26.1094 11.2135 26.1094 10.8594V10.6953C26.1094 10.3516 26.0755 10.0286 26.0078 9.72656C25.9453 9.41927 25.8438 9.14844 25.7031 8.91406C25.5677 8.67448 25.388 8.48698 25.1641 8.35156C24.9401 8.21615 24.6693 8.14844 24.3516 8.14844C24.0339 8.14844 23.763 8.21615 23.5391 8.35156C23.3203 8.48698 23.1406 8.67448 23 8.91406C22.8646 9.14844 22.7656 9.41927 22.7031 9.72656C22.6406 10.0286 22.6094 10.3516 22.6094 10.6953ZM35.5391 9.96094V11.7109H31.2422V9.96094H35.5391ZM31.9922 6.54688V15H29.7422V6.54688H31.9922ZM37.0625 6.54688V15H34.8047V6.54688H37.0625ZM41.2109 6.54688V15H38.9609V6.54688H41.2109ZM46.7031 6.54688L43.0625 11.8359H40.8125L40.5391 9.75781H42.0312L43.8516 6.54688H46.7031ZM43.9531 15L41.875 11.4297L43.8359 10.3438L46.9688 15H43.9531ZM50.0547 11.8594L52.8906 6.54688H55.1406V15H52.8906V9.67969L50.0547 15H47.8047V6.54688H50.0547V11.8594Z" fill="#212121"/>
<rect x="0.5" y="69.5" width="269" height="69" rx="4.5" stroke="#9747FF" stroke-dasharray="10 5"/>
<path d="M94.1543 92.9844C93.8292 92.9988 93.5264 93.0935 93.2598 93.2012C93.01 93.3017 92.0558 93.711 90.5527 94.3555C89.0484 95.0006 87.0565 95.8558 84.9316 96.7696C80.682 98.5971 75.9042 100.654 73.457 101.707C73.365 101.747 73.0439 101.849 72.7031 102.115C72.3623 102.381 72 102.933 72 103.547C72 104.042 72.2361 104.534 72.5332 104.828C72.8303 105.122 73.1447 105.267 73.4141 105.377C74.3912 105.776 77.4218 107.016 77.9941 107.25C78.1955 107.867 79.2925 111.223 79.5469 112.045C79.7146 112.588 79.8742 112.928 80.082 113.197C80.1859 113.332 80.3067 113.45 80.4531 113.543C80.5116 113.58 80.5758 113.609 80.6406 113.635L80.6445 113.637C80.6595 113.643 80.6723 113.653 80.6875 113.658C80.7161 113.668 80.7352 113.669 80.7734 113.678C80.9258 113.727 81.0795 113.758 81.2168 113.758C81.802 113.758 82.1602 113.436 82.1602 113.436L82.1816 113.42L85.1914 110.816L88.8418 114.27C88.8932 114.342 89.3725 115 90.4297 115C91.0574 115 91.5553 114.685 91.875 114.35C92.1947 114.014 92.3938 113.662 92.4785 113.219V113.217C92.5577 112.798 95.9219 95.5274 95.9219 95.5274L95.916 95.5508C96.0145 95.1013 96.0403 94.6827 95.9316 94.2696C95.823 93.8565 95.5366 93.461 95.1816 93.2481C94.8267 93.0353 94.4794 92.9701 94.1543 92.9844ZM93.9668 95.0743C93.962 95.1035 93.9704 95.0888 93.9629 95.1231L93.9609 95.1348L93.959 95.1465C93.959 95.1465 90.6365 112.196 90.5137 112.846C90.5227 112.797 90.4816 112.894 90.4395 112.953C90.3799 112.912 90.2578 112.859 90.2578 112.859L90.2383 112.838L85.252 108.121L81.7266 111.168L82.7754 106.969C82.7754 106.969 89.3316 100.182 89.7266 99.7872C90.0446 99.4712 90.1113 99.361 90.1113 99.252C90.1113 99.106 90.0352 99.0001 89.8652 99.0001C89.7122 99.0001 89.5065 99.1488 89.3965 99.2188C87.9634 100.132 81.6718 103.799 78.8516 105.44C78.4034 105.256 75.2897 103.982 74.2344 103.551C74.2424 103.547 74.2397 103.549 74.248 103.545C76.6959 102.492 81.4716 100.435 85.7207 98.6075C87.8452 97.6939 89.8387 96.838 91.3418 96.1934C92.8218 95.5587 93.8501 95.1219 93.9668 95.0743Z" fill="#212121"/>
<g clip-path="url(#clip0_9_234)">
<path d="M184.429 94.6616C182.876 94.6469 181.704 94.7202 180.723 95.2255C180.32 95.4306 180.034 95.6943 179.814 96.0019C179.697 96.1557 179.587 96.2949 179.536 96.6171C179.507 96.771 179.485 97.0273 179.646 97.3056C179.807 97.5913 180.151 97.7817 180.386 97.8183C180.561 97.8403 180.935 97.9941 181.001 98.082C181.155 98.3017 181.213 98.4629 181.235 98.5507C181.257 98.6386 181.25 98.58 181.25 98.58V98.6679C181.25 98.6679 181.309 99.5908 181.272 100.543C181.25 101.012 181.206 101.502 181.133 101.832C181.06 102.162 180.876 102.242 181.14 102.088C180.957 102.198 181.023 102.242 180.796 102.125C180.561 102.015 179.954 101.502 179.155 100.067C178.357 98.624 177.778 97.8769 177.646 97.7158C177.595 97.5693 177.471 97.269 177.046 96.9394C176.497 96.5146 175.933 96.5073 175.933 96.5073L175.881 96.5H171.787C171.787 96.5 171.553 96.5073 171.282 96.5659C171.011 96.6245 170.623 96.6904 170.256 97.1445H170.249C169.875 97.6206 169.941 98.0527 169.971 98.3164C170.007 98.5874 170.088 98.7998 170.088 98.7998L170.102 98.8437L170.124 98.8877C170.124 98.8877 173.252 105.56 176.987 109.625C180.496 113.448 184.56 113.375 184.56 113.375H186.868L186.919 113.368C186.919 113.368 187.659 113.404 188.281 112.708C188.596 112.35 188.669 112.013 188.706 111.764C188.75 111.507 188.75 111.302 188.75 111.302V111.361C188.75 111.361 188.779 110.877 188.911 110.372C188.977 110.123 189.072 109.874 189.16 109.735C189.204 109.654 189.204 109.676 189.219 109.654C189.38 109.771 189.644 110.042 189.922 110.387C190.493 111.068 191.138 112.013 192.039 112.665C192.69 113.126 193.306 113.331 193.774 113.404C194.089 113.456 194.316 113.448 194.47 113.434L197.656 113.375H197.685C197.685 113.375 198.345 113.36 199.004 112.943C199.326 112.738 199.7 112.364 199.824 111.83C199.956 111.295 199.81 110.716 199.502 110.182C199.604 110.365 199.48 110.123 199.385 109.933C199.29 109.742 199.143 109.486 198.923 109.164C198.498 108.534 197.795 107.647 196.631 106.519C196.081 105.992 195.73 105.699 195.51 105.494C195.576 105.399 195.583 105.392 195.832 105.099C196.228 104.637 196.807 103.956 197.539 102.938C198.418 101.707 199.055 100.704 199.465 99.8691C199.875 99.0415 200.205 98.353 199.839 97.5034C199.641 97.042 199.29 96.8662 199.033 96.7563C198.769 96.6464 198.535 96.6025 198.315 96.5659C197.883 96.5 197.502 96.5 197.502 96.5L193.789 96.5293C193.679 96.5073 193.254 96.4267 192.705 96.7783C192.163 97.1152 192.039 97.4741 192.009 97.5839C191.921 97.7085 191.306 98.58 190.449 100.103C189.585 101.642 188.999 102.059 188.926 102.096C188.904 102.074 188.948 102.081 188.845 102.022C188.801 101.986 188.757 101.957 188.721 101.561C188.691 101.165 188.728 100.543 188.728 99.8105C188.728 98.2358 188.867 97.4155 188.787 96.6318C188.75 96.2363 188.589 95.7529 188.237 95.4306C187.886 95.1157 187.505 94.9985 187.109 94.896C186.487 94.7421 185.644 94.6762 184.429 94.6616ZM184.414 96.5366C185.549 96.5512 186.348 96.6391 186.641 96.7124C186.89 96.7783 186.926 96.8076 186.919 96.7929C186.919 96.8076 186.919 96.8003 186.919 96.8222C186.948 97.1372 186.853 98.1479 186.853 99.8105C186.853 100.462 186.802 101.092 186.853 101.722C186.904 102.352 187.131 103.121 187.798 103.575H187.805C187.725 103.524 188.647 104.212 189.526 103.897C190.405 103.575 191.101 102.769 192.09 101.019C192.954 99.4663 193.591 98.5947 193.591 98.5947L193.65 98.5068L193.694 98.4189C193.694 98.4189 193.679 98.4116 193.694 98.4043L197.502 98.375C197.502 98.375 197.766 98.375 198.022 98.4189C198.03 98.4189 198.037 98.4189 198.044 98.4189C198.008 98.4336 198.037 98.5288 197.781 99.0488C197.451 99.7153 196.858 100.667 196.016 101.847C195.32 102.806 194.8 103.429 194.412 103.883C194.023 104.33 193.73 104.542 193.54 105.128C193.445 105.414 193.467 105.838 193.606 106.124C193.738 106.402 193.899 106.556 194.06 106.71C194.382 107.018 194.763 107.318 195.32 107.867C196.411 108.922 197.026 109.698 197.371 110.211C197.546 110.475 197.649 110.658 197.715 110.79C197.781 110.921 197.737 110.87 197.883 111.119C198.008 111.346 197.986 111.375 197.986 111.361C197.861 111.434 197.546 111.5 197.539 111.5L194.353 111.559L194.265 111.581C194.265 111.581 194.272 111.588 194.075 111.559C193.87 111.522 193.547 111.434 193.137 111.141C192.632 110.782 191.995 109.947 191.365 109.186C191.057 108.812 190.742 108.446 190.347 108.153C189.951 107.86 189.329 107.589 188.691 107.801C188.142 107.977 187.783 108.38 187.556 108.753C187.329 109.134 187.197 109.53 187.095 109.889C186.904 110.614 186.875 111.266 186.875 111.266V111.324C186.875 111.324 186.875 111.368 186.86 111.434C186.824 111.449 186.772 111.485 186.743 111.5H184.502C184.502 111.5 181.404 111.661 178.364 108.365C175.112 104.813 172.219 98.873 171.977 98.375H175.749C175.786 98.3896 175.918 98.4409 175.903 98.4336C175.815 98.3603 175.947 98.5214 175.947 98.5214L176.006 98.6606L176.108 98.7778C176.108 98.7778 176.687 99.4809 177.515 100.975C178.401 102.579 179.148 103.414 179.983 103.817C180.818 104.22 181.697 103.934 182.07 103.722C182.766 103.319 182.847 102.755 182.964 102.235C183.081 101.715 183.118 101.158 183.14 100.616C183.184 99.5761 183.125 98.6899 183.125 98.624C183.118 98.602 183.118 98.3457 183.044 98.0673C182.964 97.7817 182.817 97.4082 182.539 97.0127C182.422 96.8515 182.312 96.9321 182.187 96.8149C182.707 96.6684 183.264 96.5219 184.414 96.5366Z" fill="#212121"/>
</g>
<path d="M34.5 92C27.6075 92 22 97.6075 22 104.5C22 111.392 27.6075 117 34.5 117C41.3925 117 47 111.392 47 104.5C47 97.6075 41.3925 92 34.5 92ZM34.5 93.875C40.3791 93.875 45.125 98.6209 45.125 104.5C45.125 109.291 41.9731 113.327 37.625 114.657V111.46C37.625 110.267 36.9371 109.243 35.9429 108.733C36.9096 108.548 37.8072 108.182 38.5612 107.664C39.3153 107.146 39.904 106.491 40.2785 105.755C40.6531 105.018 40.8026 104.221 40.7148 103.429C40.6269 102.637 40.3042 101.873 39.7734 101.2C40.0507 100.347 40.3603 98.8504 39.6245 97.6726C38.2058 97.6726 37.2904 98.6451 36.8535 99.2498C36.1066 99.0044 35.3074 98.8771 34.5 98.875C33.6921 98.8757 32.892 99.0017 32.144 99.2461C31.7061 98.6411 30.7914 97.6726 29.3755 97.6726C28.5311 99.0243 29.0531 100.478 29.3328 101.071C28.7661 101.74 28.4108 102.51 28.2973 103.313C28.1837 104.116 28.3154 104.93 28.681 105.683C29.0465 106.437 29.6351 107.109 30.3962 107.641C31.1573 108.172 32.0683 108.549 33.051 108.737C32.2347 109.158 31.6233 109.921 31.436 110.848H30.6145C29.8039 110.848 29.4889 110.518 29.0508 109.963C28.6183 109.407 28.1532 109.034 27.5945 108.879C27.2932 108.847 27.0903 109.076 27.3528 109.279C28.2397 109.883 28.3009 110.871 28.6565 111.518C28.9802 112.1 29.6436 112.625 30.3936 112.625H31.375V114.657C27.0269 113.327 23.875 109.291 23.875 104.5C23.875 98.6209 28.6209 93.875 34.5 93.875Z" fill="black"/>
<path d="M242.578 92.0001C242.328 91.9979 242.105 92.1563 242.027 92.3952L239.185 101.143H231.101L228.259 92.3952C228.183 92.1653 227.971 92.0068 227.728 92.0001C227.485 91.9956 227.266 92.143 227.179 92.3706L223.755 101.509C223.753 101.509 223.753 101.511 223.75 101.513L222.036 106.085C221.947 106.326 222.027 106.596 222.237 106.748L234.804 115.886L234.806 115.891C234.808 115.891 234.808 115.891 234.808 115.893C234.815 115.897 234.824 115.902 234.831 115.906C234.84 115.911 234.846 115.917 234.855 115.922C234.857 115.922 234.857 115.924 234.86 115.924C234.86 115.924 234.862 115.926 234.864 115.926C234.866 115.929 234.869 115.931 234.873 115.931C234.875 115.933 234.88 115.935 234.882 115.938C234.893 115.942 234.906 115.949 234.92 115.953C234.92 115.953 234.92 115.953 234.92 115.955C234.933 115.96 234.947 115.964 234.958 115.969C234.96 115.969 234.96 115.969 234.962 115.971C234.971 115.973 234.98 115.975 234.991 115.98C234.996 115.98 235 115.982 235.007 115.982C235.007 115.984 235.007 115.984 235.007 115.982C235.018 115.987 235.029 115.989 235.04 115.991C235.056 115.993 235.069 115.996 235.085 115.998C235.107 115.998 235.132 116 235.154 116C235.177 115.998 235.197 115.998 235.217 115.993C235.226 115.993 235.232 115.993 235.241 115.991C235.241 115.991 235.244 115.991 235.246 115.991C235.25 115.989 235.252 115.989 235.257 115.989C235.259 115.989 235.261 115.987 235.266 115.987C235.27 115.984 235.277 115.984 235.281 115.982C235.29 115.98 235.297 115.978 235.304 115.975C235.308 115.975 235.311 115.975 235.313 115.973C235.315 115.973 235.317 115.973 235.319 115.973C235.328 115.969 235.34 115.964 235.348 115.962C235.36 115.958 235.369 115.953 235.377 115.949C235.38 115.949 235.38 115.949 235.382 115.946C235.384 115.946 235.386 115.946 235.389 115.944C235.393 115.942 235.398 115.94 235.402 115.938C235.415 115.931 235.427 115.924 235.438 115.917C235.442 115.915 235.444 115.913 235.447 115.911C235.449 115.911 235.451 115.908 235.453 115.908C235.462 115.902 235.471 115.897 235.48 115.891L235.485 115.884L248.052 106.748C248.259 106.596 248.339 106.326 248.25 106.085L246.54 101.529C246.538 101.525 246.536 101.518 246.536 101.513L243.107 92.3706C243.023 92.1497 242.815 92.0023 242.578 92.0001ZM225.467 102.286H230.27L233.616 112.58L225.467 102.286ZM240.016 102.286H244.819L236.67 112.58L240.016 102.286ZM224.465 102.862L232.107 112.516L223.259 106.08L224.465 102.862ZM245.822 102.862L247.027 106.08L238.179 112.516L245.822 102.862Z" fill="black"/>
<path d="M129.676 93C125.999 93 123 95.9994 123 99.6761V109.324C123 113.001 125.999 116 129.676 116H139.324C143.001 116 146 113.001 146 109.324V99.6761C146 95.9994 143.001 93 139.324 93H129.676ZM129.676 94.7692H139.324C142.043 94.7692 144.231 96.9531 144.231 99.6761V109.324C144.231 112.043 142.047 114.231 139.324 114.231H129.676C126.957 114.231 124.769 112.047 124.769 109.324V99.6761C124.769 96.9566 126.953 94.7692 129.676 94.7692ZM141.135 96.5385C140.402 96.5385 139.808 97.1328 139.808 97.8654C139.808 98.598 140.402 99.1923 141.135 99.1923C141.867 99.1923 142.462 98.598 142.462 97.8654C142.462 97.1328 141.867 96.5385 141.135 96.5385ZM134.5 98.3077C131.089 98.3077 128.308 101.089 128.308 104.5C128.308 107.911 131.089 110.692 134.5 110.692C137.911 110.692 140.692 107.911 140.692 104.5C140.692 101.089 137.911 98.3077 134.5 98.3077ZM134.5 100.077C136.953 100.077 138.923 102.047 138.923 104.5C138.923 106.953 136.953 108.923 134.5 108.923C132.047 108.923 130.077 106.953 130.077 104.5C130.077 102.047 132.047 100.077 134.5 100.077Z" fill="black"/>
<rect x="0.5" y="189.5" width="818" height="69" rx="4.5" stroke="#9747FF" stroke-dasharray="10 5"/>
<path d="M45.625 212.125H24.375L26.25 233.375L35 235.875L43.75 233.375L45.625 212.125Z" fill="#E65100"/>
<path d="M35 214V233.938L42 231.937L43.5625 214H35Z" fill="#FF6D00"/>
<path d="M35 224.625V222.125H40.375L39.9375 229.312L35 230.937V228.312L37.5625 227.438L37.75 224.625H35ZM40.5625 219.625L40.75 217.125H35V219.625H40.5625Z" fill="white"/>
<path d="M35 228.312V230.937L30.0625 229.312L29.8125 225.875H32.3125L32.4375 227.438L35 228.312ZM31.9375 219.625H35V217.125H29.3125L29.75 224.625H35V222.125H32.125L31.9375 219.625Z" fill="#EEEEEE"/>
<path d="M95.625 212.125H74.375L76.25 233.375L85 235.875L93.75 233.375L95.625 212.125Z" fill="#0277BD"/>
<path d="M85 214V233.938L92 231.937L93.5625 214H85Z" fill="#039BE5"/>
<path d="M90.6875 217.125H85V219.625H88.0625L87.875 222.125H85V224.625H87.75L87.5625 227.438L85 228.312V230.937L89.9375 229.312L90.375 222.125L90.6875 217.125Z" fill="white"/>
<path d="M85 217.125V219.625H79.4375L79.25 217.125H85ZM82.125 222.125L82.25 224.625H85V222.125H82.125ZM82.375 225.875H79.875L80.0625 229.312L85 230.937V228.312L82.4375 227.438L82.375 225.875Z" fill="#EEEEEE"/>
<path d="M123.75 235.25V212.75H146.25V235.25H123.75Z" fill="#F7DF1E"/>
<path d="M138.461 229.592C138.894 230.294 139.364 230.967 140.359 230.967C141.196 230.967 141.634 230.552 141.634 229.977C141.634 229.289 141.181 229.044 140.261 228.644L139.756 228.429C138.301 227.811 137.333 227.038 137.333 225.403C137.333 223.897 138.486 222.751 140.288 222.751C141.571 222.751 142.493 223.195 143.158 224.359L141.586 225.363C141.241 224.746 140.867 224.503 140.288 224.503C139.696 224.503 139.322 224.876 139.322 225.363C139.322 225.966 139.697 226.209 140.563 226.582L141.067 226.797C142.783 227.528 143.75 228.274 143.75 229.952C143.75 231.759 142.323 232.75 140.406 232.75C138.532 232.75 137.468 231.809 136.875 230.645L138.461 229.592ZM131.22 229.643C131.536 230.209 132.017 230.645 132.708 230.645C133.369 230.645 133.75 230.384 133.75 229.368V222.75H135.833V229.688C135.833 231.793 134.613 232.75 132.83 232.75C131.219 232.75 130.057 231.659 129.583 230.645L131.22 229.643Z" fill="#000001"/>
<path d="M185 230.25C176.938 230.25 170.625 227.5 170.625 224C170.625 220.5 176.938 217.75 185 217.75C193.062 217.75 199.375 220.5 199.375 224C199.375 227.5 193.062 230.25 185 230.25ZM185 219C177.125 219 171.875 221.562 171.875 224C171.875 226.438 177.125 229 185 229C192.875 229 198.125 226.438 198.125 224C198.125 221.562 192.875 219 185 219Z" fill="#80DEEA"/>
<path d="M179.437 236.875C178.812 236.875 178.312 236.75 177.812 236.437C174.75 234.687 175.562 227.875 179.562 220.875C181.437 217.625 183.75 214.875 186 213.125C188.437 211.25 190.625 210.687 192.125 211.562C193.687 212.437 194.25 214.625 193.875 217.687C193.5 220.562 192.25 223.937 190.375 227.187C188.5 230.437 186.187 233.187 183.937 234.937C182.312 236.187 180.75 236.875 179.437 236.875ZM190.562 212.375C189.562 212.375 188.25 212.937 186.812 214.062C184.687 215.75 182.5 218.375 180.687 221.5C176.75 228.312 176.375 234.187 178.437 235.375C179.5 236 181.25 235.437 183.187 233.937C185.312 232.25 187.5 229.625 189.312 226.5C191.125 223.375 192.312 220.187 192.687 217.5C193 215 192.625 213.25 191.562 212.625C191.25 212.5 190.937 212.375 190.562 212.375Z" fill="#80DEEA"/>
<path d="M190.625 236.875C187.5 236.875 183 233.063 179.625 227.125C175.562 220.125 174.75 213.313 177.812 211.563C180.875 209.813 186.375 213.875 190.437 220.875C192.312 224.125 193.562 227.5 193.937 230.375C194.375 233.438 193.75 235.563 192.187 236.5C191.687 236.75 191.187 236.875 190.625 236.875ZM178.437 212.625C176.375 213.813 176.75 219.688 180.687 226.5C184.625 233.313 189.5 236.563 191.562 235.375C192.625 234.75 193 233 192.687 230.5C192.312 227.813 191.125 224.625 189.312 221.5C185.375 214.688 180.5 211.438 178.437 212.625Z" fill="#80DEEA"/>
<path d="M185 226.5C186.381 226.5 187.5 225.381 187.5 224C187.5 222.619 186.381 221.5 185 221.5C183.619 221.5 182.5 222.619 182.5 224C182.5 225.381 183.619 226.5 185 226.5Z" fill="#80DEEA"/>
<path d="M234.992 219.625L231.709 214H221.859L234.992 236.5L248.125 214H238.275L234.992 219.625Z" fill="#81C784"/>
<path d="M238.275 214L234.992 219.625L231.709 214H226.966L234.992 227.75L243.018 214H238.275Z" fill="#455A64"/>
<path d="M285.004 237.387C284.646 237.387 284.29 237.293 283.976 237.112L280.701 235.172C280.211 234.899 280.45 234.802 280.611 234.746C281.264 234.518 281.396 234.466 282.092 234.071C282.165 234.029 282.261 234.044 282.336 234.088L284.852 235.581C284.943 235.631 285.072 235.631 285.156 235.581L294.966 229.918C295.057 229.866 295.116 229.761 295.116 229.653V218.332C295.116 218.219 295.058 218.119 294.964 218.062L285.158 212.404C285.068 212.35 284.947 212.35 284.856 212.404L275.051 218.062C274.956 218.116 274.896 218.221 274.896 218.329V229.651C274.896 229.759 274.954 229.862 275.048 229.913L277.735 231.465C279.194 232.194 280.085 231.335 280.085 230.471V219.297C280.085 219.138 280.21 219.015 280.37 219.015H281.613C281.767 219.015 281.895 219.137 281.895 219.297V230.476C281.895 232.421 280.834 233.539 278.99 233.539C278.422 233.539 277.976 233.539 276.728 232.925L274.154 231.442C273.518 231.073 273.125 230.385 273.125 229.651V218.33C273.125 217.593 273.518 216.906 274.154 216.542L283.975 210.876C284.596 210.525 285.421 210.525 286.038 210.876L295.847 216.544C296.479 216.91 296.875 217.596 296.875 218.332V229.654C296.875 230.388 296.479 231.073 295.846 231.442L286.038 237.107C285.723 237.289 285.367 237.382 285.004 237.382" fill="#21A366"/>
<path d="M288.035 229.586C283.743 229.586 282.843 227.615 282.843 225.962C282.843 225.806 282.969 225.68 283.127 225.68H284.394C284.534 225.68 284.653 225.782 284.674 225.92C284.866 227.211 285.436 227.862 288.031 227.862C290.099 227.862 290.978 227.396 290.978 226.299C290.978 225.667 290.728 225.199 287.516 224.884C284.829 224.619 283.169 224.027 283.169 221.879C283.169 219.899 284.839 218.721 287.636 218.721C290.777 218.721 292.334 219.811 292.53 222.154C292.538 222.235 292.508 222.313 292.454 222.372C292.4 222.429 292.324 222.463 292.245 222.463H290.971C290.838 222.463 290.723 222.37 290.696 222.242C290.389 220.884 289.647 220.449 287.631 220.449C285.374 220.449 285.111 221.235 285.111 221.824C285.111 222.539 285.421 222.747 288.466 223.151C291.481 223.551 292.913 224.116 292.913 226.235C292.913 228.371 291.13 229.597 288.021 229.597" fill="#21A366"/>
<path d="M335.029 212.125C334.057 212.128 333.384 212.214 332.569 212.354C330.164 212.773 329.726 213.653 329.726 215.273V217.75H335.351V219H329.512H326.794C325.146 219 323.704 219.776 323.247 221.637C322.731 223.773 322.708 225.11 323.247 227.34C323.657 229.003 324.559 230.25 326.207 230.25H328.477V227.06C328.477 225.206 330.156 223.375 332.079 223.375H336.602C338.179 223.375 339.727 222.211 339.727 220.639V215.273C339.727 213.749 338.627 212.609 337.091 212.353C337.129 212.349 335.993 212.121 335.029 212.125ZM331.914 214.625C332.427 214.625 332.852 215.048 332.852 215.564C332.852 216.084 332.427 216.5 331.914 216.5C331.391 216.5 330.977 216.085 330.977 215.564C330.977 215.05 331.391 214.625 331.914 214.625Z" fill="#0277BD"/>
<path d="M334.424 235.875C335.396 235.872 336.069 235.786 336.884 235.646C339.289 235.227 339.727 234.347 339.727 232.727V230.25H334.102V229H339.941H342.66C344.307 229 345.749 228.224 346.206 226.363C346.722 224.227 346.746 222.89 346.206 220.66C345.796 218.997 344.894 217.75 343.246 217.75H340.976V220.94C340.976 222.794 339.297 224.625 337.374 224.625H332.851C331.274 224.625 329.726 225.789 329.726 227.361V232.727C329.726 234.251 330.826 235.391 332.362 235.647C332.324 235.651 333.46 235.879 334.424 235.875ZM337.539 233.375C337.026 233.375 336.602 232.952 336.602 232.436C336.602 231.916 337.026 231.5 337.539 231.5C338.062 231.5 338.477 231.915 338.477 232.436C338.477 232.95 338.062 233.375 337.539 233.375Z" fill="#FFC107"/>
<path fill-rule="evenodd" clip-rule="evenodd" d="M384.314 211.054C384.739 210.816 385.261 210.816 385.685 211.054C387.782 212.231 394.092 215.773 396.189 216.95C396.614 217.188 396.875 217.628 396.875 218.104C396.875 220.458 396.875 227.542 396.875 229.896C396.875 230.372 396.614 230.812 396.189 231.05C394.093 232.227 387.783 235.769 385.685 236.946C385.261 237.184 384.738 237.184 384.314 236.946C382.217 235.769 375.908 232.227 373.81 231.05C373.386 230.812 373.125 230.373 373.125 229.896C373.125 227.543 373.125 220.458 373.125 218.104C373.125 217.628 373.386 217.188 373.811 216.95C375.907 215.773 382.218 212.231 384.314 211.054Z" fill="url(#paint0_linear_9_234)"/>
<path fill-rule="evenodd" clip-rule="evenodd" d="M373.315 230.503C373.149 230.28 373.125 230.069 373.125 229.784C373.125 227.444 373.125 220.401 373.125 218.06C373.125 217.586 373.386 217.149 373.809 216.913C375.898 215.743 382.187 212.221 384.276 211.05C384.699 210.813 385.273 210.818 385.696 211.055C387.785 212.225 394.052 215.717 396.142 216.887C396.311 216.982 396.439 217.096 396.554 217.247L373.315 230.503Z" fill="url(#paint1_linear_9_234)"/>
<path fill-rule="evenodd" clip-rule="evenodd" d="M385 215.25C389.829 215.25 393.75 219.171 393.75 224C393.75 228.829 389.829 232.75 385 232.75C380.171 232.75 376.25 228.829 376.25 224C376.25 219.171 380.171 215.25 385 215.25ZM385 219.625C387.414 219.625 389.375 221.585 389.375 224C389.375 226.414 387.414 228.375 385 228.375C382.586 228.375 380.625 226.414 380.625 224C380.625 221.585 382.585 219.625 385 219.625Z" fill="white"/>
<path fill-rule="evenodd" clip-rule="evenodd" d="M396.553 217.253C396.876 217.555 396.869 218.01 396.869 218.368C396.869 220.74 396.849 227.486 396.875 229.858C396.877 230.106 396.796 230.366 396.673 230.563L384.746 224L396.553 217.253Z" fill="url(#paint2_linear_9_234)"/>
<g opacity="0.05">
<path fill-rule="evenodd" clip-rule="evenodd" d="M390.625 222.125V223.375H391.875V224.625H390.625V225.875H389.375V224.625H388.125V223.375H389.375V222.125H390.625ZM391.25 221.5H390.625H389.375H388.75V222.125V222.75H388.125H387.5V223.375V224.625V225.25H388.125H388.75V225.875V226.5H389.375H390.625H391.25V225.875V225.25H391.875H392.5V224.625V223.375V222.75H391.875H391.25V222.125V221.5Z" fill="black"/>
<path fill-rule="evenodd" clip-rule="evenodd" d="M395 222.125V223.375H396.25V224.625H395V225.875H393.75V224.625H392.5V223.375H393.75V222.125H395ZM395.625 221.5H395H393.75H393.125V222.125V222.75H392.5H391.875V223.375V224.625V225.25H392.5H393.125V225.875V226.5H393.75H395H395.625V225.875V225.25H396.25H396.875V224.625V223.375V222.75H396.25H395.625V222.125V221.5Z" fill="black"/>
</g>
<g opacity="0.07">
<path fill-rule="evenodd" clip-rule="evenodd" d="M390.625 222.125V223.375H391.875V224.625H390.625V225.875H389.375V224.625H388.125V223.375H389.375V222.125H390.625ZM390.938 221.812H390.625H389.375H389.062V222.125V223.062H388.125H387.812V223.375V224.625V224.938H388.125H389.062V225.875V226.188H389.375H390.625H390.938V225.875V224.938H391.875H392.188V224.625V223.375V223.062H391.875H390.938V222.125V221.812Z" fill="black"/>
<path fill-rule="evenodd" clip-rule="evenodd" d="M395 222.125V223.375H396.25V224.625H395V225.875H393.75V224.625H392.5V223.375H393.75V222.125H395ZM395.312 221.812H395H393.75H393.438V222.125V223.062H392.5H392.188V223.375V224.625V224.938H392.5H393.438V225.875V226.188H393.75H395H395.312V225.875V224.938H396.25H396.562V224.625V223.375V223.062H396.25H395.312V222.125V221.812Z" fill="black"/>
</g>
<path fill-rule="evenodd" clip-rule="evenodd" d="M390.625 222.125H389.375V223.375H388.125V224.625H389.375V225.875H390.625V224.625H391.875V223.375H390.625V222.125Z" fill="white"/>
<path fill-rule="evenodd" clip-rule="evenodd" d="M396.25 223.375H395V222.125H393.75V223.375H392.5V224.625H393.75V225.875H395V224.625H396.25V223.375Z" fill="white"/>
<path opacity="0.05" fill-rule="evenodd" clip-rule="evenodd" d="M385 215.25C388.205 215.25 391.001 216.982 392.526 219.554L388.73 221.723C387.961 220.467 386.579 219.625 385 219.625C382.585 219.625 380.625 221.585 380.625 224C380.625 226.414 382.586 228.375 385 228.375C386.606 228.375 388.007 227.505 388.768 226.213L392.601 228.322C391.094 230.964 388.256 232.75 385 232.75C380.171 232.75 376.25 228.829 376.25 224C376.25 219.171 380.171 215.25 385 215.25ZM385 214.625C379.831 214.625 375.625 218.831 375.625 224C375.625 229.169 379.831 233.375 385 233.375C388.354 233.375 391.475 231.558 393.144 228.631L393.458 228.08L392.902 227.774L389.069 225.665L388.538 225.372L388.229 225.896C387.556 227.039 386.319 227.75 385 227.75C382.932 227.75 381.25 226.068 381.25 224C381.25 221.932 382.932 220.25 385 220.25C386.312 220.25 387.507 220.922 388.197 222.049L388.514 222.567L389.04 222.266L392.836 220.098L393.387 219.783L393.063 219.236C391.378 216.392 388.289 214.625 385 214.625Z" fill="black"/>
<path opacity="0.07" fill-rule="evenodd" clip-rule="evenodd" d="M385 215.25C388.205 215.25 391.001 216.982 392.526 219.554L388.73 221.723C387.961 220.467 386.579 219.625 385 219.625C382.585 219.625 380.625 221.585 380.625 224C380.625 226.414 382.586 228.375 385 228.375C386.606 228.375 388.007 227.505 388.768 226.213L392.601 228.322C391.094 230.964 388.256 232.75 385 232.75C380.171 232.75 376.25 228.829 376.25 224C376.25 219.171 380.171 215.25 385 215.25ZM385 214.938C380.003 214.938 375.938 219.003 375.938 224C375.938 228.997 380.003 233.062 385 233.062C388.243 233.062 391.259 231.305 392.872 228.477L393.029 228.201L392.751 228.048L388.919 225.939L388.653 225.793L388.499 226.054C387.769 227.293 386.429 228.062 385 228.062C382.76 228.062 380.938 226.24 380.938 224C380.938 221.76 382.76 219.938 385 219.938C386.422 219.938 387.716 220.666 388.464 221.886L388.622 222.145L388.885 221.994L392.681 219.826L392.956 219.668L392.794 219.395C391.165 216.646 388.179 214.938 385 214.938Z" fill="black"/>
<path d="M446.874 218.723C446.874 218.274 446.778 217.877 446.583 217.537C446.393 217.202 446.107 216.922 445.724 216.7C442.562 214.877 439.398 213.059 436.237 211.234C435.385 210.742 434.559 210.76 433.713 211.259C432.454 212.001 426.153 215.611 424.276 216.699C423.503 217.147 423.126 217.832 423.126 218.722C423.125 222.388 423.126 226.055 423.125 229.721C423.125 230.16 423.217 230.549 423.403 230.884C423.593 231.229 423.883 231.517 424.275 231.744C426.153 232.832 432.454 236.441 433.712 237.183C434.559 237.683 435.385 237.701 436.237 237.209C439.398 235.384 442.563 233.566 445.725 231.743C446.117 231.516 446.407 231.228 446.597 230.883C446.783 230.548 446.875 230.159 446.875 229.72C446.875 229.72 446.875 222.389 446.874 218.723Z" fill="#A179DC"/>
<path d="M435.036 224.186L423.403 230.884C423.593 231.229 423.883 231.517 424.275 231.744C426.152 232.832 432.454 236.441 433.712 237.183C434.558 237.683 435.385 237.701 436.237 237.209C439.398 235.384 442.563 233.566 445.725 231.743C446.117 231.516 446.407 231.228 446.597 230.883L435.036 224.186Z" fill="#280068"/>
<path d="M446.874 218.723C446.874 218.274 446.778 217.877 446.584 217.537L435.036 224.186L446.597 230.883C446.783 230.548 446.875 230.159 446.875 229.72C446.875 229.72 446.875 222.389 446.874 218.723Z" fill="#390091"/>
<path d="M441.886 221.682V222.934H443.138V221.682H443.764V222.934H445.016V223.56H443.764V224.812H445.016V225.438H443.764V226.69H443.138V225.438H441.886V226.69H441.26V225.438H440.008V224.812H441.26V223.56H440.008V222.934H441.26V221.682H441.886ZM443.138 223.56H441.886V224.812H443.138V223.56Z" fill="white"/>
<path d="M435.062 215.394C438.328 215.394 441.179 217.167 442.706 219.803L442.691 219.778L438.849 221.99C438.092 220.709 436.704 219.844 435.112 219.826L435.062 219.825C432.634 219.825 430.666 221.794 430.666 224.221C430.665 224.986 430.865 225.739 431.246 226.402C432.003 227.725 433.428 228.617 435.062 228.617C436.706 228.617 438.139 227.714 438.892 226.377L438.874 226.409L442.711 228.631C441.2 231.245 438.388 233.014 435.16 233.049L435.062 233.049C431.786 233.049 428.926 231.265 427.403 228.615C426.659 227.321 426.234 225.821 426.234 224.221C426.234 219.346 430.186 215.393 435.062 215.393L435.062 215.394Z" fill="white"/>
<path d="M492.217 235.519L490.228 233.531L488.903 234.856L490.891 236.845C491.258 237.211 491.851 237.211 492.217 236.845C492.583 236.479 492.583 235.886 492.217 235.519ZM494.092 224.269L492.103 222.281L490.778 223.606L492.766 225.595C493.133 225.961 493.726 225.961 494.092 225.595C494.458 225.229 494.458 224.636 494.092 224.269ZM477.927 235.519L479.916 233.531L481.241 234.856L479.253 236.845C478.886 237.211 478.293 237.211 477.927 236.845C477.561 236.479 477.561 235.886 477.927 235.519ZM475.896 224.269L477.884 222.281L479.21 223.606L477.221 225.595C476.855 225.961 476.261 225.961 475.896 225.595C475.53 225.229 475.529 224.636 475.896 224.269Z" fill="#FFCC80"/>
<path d="M493.75 214C493.75 212.792 493.032 212.125 491.731 212.125C490.429 212.125 489.375 213.729 489.375 214.938C489.375 215.562 490.577 215.875 491.25 215.875C492.551 215.875 493.75 215.208 493.75 214ZM476.25 214C476.25 212.792 476.968 212.125 478.269 212.125C479.571 212.125 480.625 213.729 480.625 214.938C480.625 215.562 479.423 215.875 478.75 215.875C477.449 215.875 476.25 215.208 476.25 214Z" fill="#4DD0E1"/>
<path d="M491.875 213.375C491.709 213.375 491.55 213.441 491.433 213.558C491.316 213.675 491.25 213.834 491.25 214C491.25 214.166 491.316 214.325 491.433 214.442C491.55 214.559 491.709 214.625 491.875 214.625C492.041 214.625 492.2 214.559 492.317 214.442C492.434 214.325 492.5 214.166 492.5 214C492.5 213.834 492.434 213.675 492.317 213.558C492.2 213.441 492.041 213.375 491.875 213.375ZM478.125 213.375C477.959 213.375 477.8 213.441 477.683 213.558C477.566 213.675 477.5 213.834 477.5 214C477.5 214.166 477.566 214.325 477.683 214.442C477.8 214.559 477.959 214.625 478.125 214.625C478.291 214.625 478.45 214.559 478.567 214.442C478.684 214.325 478.75 214.166 478.75 214C478.75 213.834 478.684 213.675 478.567 213.558C478.45 213.441 478.291 213.375 478.125 213.375Z" fill="#424242"/>
<path d="M493.125 230.25C493.125 233.234 491.113 236.5 484.806 236.5C479.73 236.5 476.875 233.234 476.875 230.25C476.875 227.125 477.5 226.621 477.5 224C477.5 221.07 477.5 219.625 477.5 217.75C477.5 214.766 479.423 210.875 484.806 210.875C490.19 210.875 492.5 213.369 492.5 217.125C492.5 219 492.352 220.533 492.5 223.375C492.616 225.601 493.125 228.375 493.125 230.25Z" fill="#4DD0E1"/>
<path d="M488.125 212.75C487.462 212.75 486.826 213.013 486.357 213.482C485.888 213.951 485.625 214.587 485.625 215.25C485.625 215.913 485.888 216.549 486.357 217.018C486.826 217.487 487.462 217.75 488.125 217.75C488.788 217.75 489.424 217.487 489.893 217.018C490.362 216.549 490.625 215.913 490.625 215.25C490.625 214.587 490.362 213.951 489.893 213.482C489.424 213.013 488.788 212.75 488.125 212.75ZM481.875 212.75C481.212 212.75 480.576 213.013 480.107 213.482C479.638 213.951 479.375 214.587 479.375 215.25C479.375 215.913 479.638 216.549 480.107 217.018C480.576 217.487 481.212 217.75 481.875 217.75C482.538 217.75 483.174 217.487 483.643 217.018C484.112 216.549 484.375 215.913 484.375 215.25C484.375 214.587 484.112 213.951 483.643 213.482C483.174 213.013 482.538 212.75 481.875 212.75Z" fill="#F5F5F5"/>
<path d="M485 221.5C485 221.845 485.28 222.125 485.625 222.125C485.97 222.125 486.25 221.845 486.25 221.5V219.625H485V221.5ZM483.75 221.5C483.75 221.845 484.03 222.125 484.375 222.125C484.72 222.125 485 221.845 485 221.5V219.625H483.75V221.5Z" fill="#EEEEEE"/>
<path d="M486.562 220.25C486.305 220.25 486.154 220.197 485.931 220.122C485.321 219.917 484.668 219.918 484.058 220.123C483.836 220.198 483.694 220.25 483.438 220.25C482.604 220.25 482.5 219.625 482.5 219.312C482.5 218.375 483.438 217.75 484.375 217.75C484.897 217.75 485.103 217.75 485.625 217.75C486.562 217.75 487.5 218.375 487.5 219.312C487.5 219.625 487.396 220.25 486.562 220.25Z" fill="#FFCC80"/>
<path d="M486.875 214.625C486.709 214.625 486.55 214.691 486.433 214.808C486.316 214.925 486.25 215.084 486.25 215.25C486.25 215.416 486.316 215.575 486.433 215.692C486.55 215.809 486.709 215.875 486.875 215.875C487.041 215.875 487.2 215.809 487.317 215.692C487.434 215.575 487.5 215.416 487.5 215.25C487.5 215.084 487.434 214.925 487.317 214.808C487.2 214.691 487.041 214.625 486.875 214.625ZM480.625 214.625C480.459 214.625 480.3 214.691 480.183 214.808C480.066 214.925 480 215.084 480 215.25C480 215.416 480.066 215.575 480.183 215.692C480.3 215.809 480.459 215.875 480.625 215.875C480.791 215.875 480.95 215.809 481.067 215.692C481.184 215.575 481.25 215.416 481.25 215.25C481.25 215.084 481.184 214.925 481.067 214.808C480.95 214.691 480.791 214.625 480.625 214.625ZM485 217.125C484.668 217.125 484.351 217.191 484.116 217.308C483.882 217.425 483.75 217.584 483.75 217.75C483.75 217.916 483.882 218.075 484.116 218.192C484.351 218.309 484.668 218.375 485 218.375C485.332 218.375 485.649 218.309 485.884 218.192C486.118 218.075 486.25 217.916 486.25 217.75C486.25 217.584 486.118 217.425 485.884 217.308C485.649 217.191 485.332 217.125 485 217.125Z" fill="#424242"/>
<path d="M534.781 224.561C534.157 223.556 533.705 222.722 533.078 221.152C532.018 218.5 539.525 216.104 536.481 211.499C537.801 214.68 531.746 216.646 531.183 219.295C530.669 221.731 534.778 224.561 534.781 224.561Z" fill="#F44336"/>
<path d="M534.924 219.794C534.804 221.366 536.317 222.204 536.361 223.353C536.396 224.288 535.456 225.068 535.456 225.068C535.456 225.068 537.161 224.733 537.693 223.306C538.284 221.723 536.547 220.638 536.726 219.37C536.893 218.159 540.495 215.906 540.495 215.906C540.495 215.906 535.194 216.257 534.924 219.794Z" fill="#F44336"/>
<path d="M540.053 224.659C541.149 224.413 542.073 225.111 542.073 225.916C542.073 227.729 539.56 229.443 539.56 229.443C539.56 229.443 543.451 228.979 543.451 226.002C543.451 224.033 541.54 223.541 540.053 224.659ZM538.206 226.122C538.206 226.122 539.419 225.258 539.742 224.933C536.765 225.565 529.968 225.65 529.968 225.101C529.968 224.596 532.16 224.078 532.16 224.078C532.16 224.078 527.302 224.008 527.302 225.441C527.302 226.934 533.661 227.041 538.206 226.122Z" fill="#1565C0"/>
<path d="M537.459 227.482C534.641 228.419 529.451 228.119 530.988 226.861C530.239 226.861 529.129 227.463 529.129 228.042C529.129 229.202 534.743 230.099 538.898 228.399L537.459 227.482Z" fill="#1565C0"/>
<path d="M531.679 229.462C530.656 229.462 529.994 230.121 529.994 230.601C529.994 232.095 536.094 232.246 538.511 230.729L536.975 229.709C535.169 230.503 530.634 230.612 531.679 229.462Z" fill="#1565C0"/>
<path d="M542.676 231.895C542.676 231.31 542.016 231.034 541.78 230.903C543.173 234.261 527.832 234 527.832 232.018C527.832 231.567 528.961 231.126 530.005 231.334L529.118 230.81C527.038 230.484 525.625 231.398 525.625 232.136C525.625 235.575 542.676 235.409 542.676 231.895Z" fill="#1565C0"/>
<path d="M544.375 233.128C541.784 235.687 535.213 236.619 528.606 235.038C535.213 237.853 544.344 236.268 544.375 233.128Z" fill="#1565C0"/>
<g clip-path="url(#clip1_9_234)">
<path d="M585 232.062C576.832 232.062 570.188 228.446 570.188 224C570.188 219.554 576.832 215.938 585 215.938C593.167 215.938 599.812 219.554 599.812 224C599.812 228.446 593.167 232.062 585 232.062Z" fill="#DCD5F2"/>
<path d="M585 216.125C593.064 216.125 599.625 219.658 599.625 224C599.625 228.342 593.064 231.875 585 231.875C576.936 231.875 570.375 228.342 570.375 224C570.375 219.658 576.936 216.125 585 216.125ZM585 215.75C576.716 215.75 570 219.444 570 224C570 228.556 576.716 232.25 585 232.25C593.284 232.25 600 228.556 600 224C600 219.444 593.284 215.75 585 215.75Z" fill="#8B75A1"/>
<path d="M579.417 221.75C580.064 221.75 580.622 221.983 580.948 222.39C581.229 222.74 581.316 223.204 581.199 223.731C580.884 225.153 580.273 225.5 578.089 225.5H576.536L577.192 221.75H579.417ZM579.417 221H576.562L575.25 228.5H576L576.396 226.25H578.089C580.288 226.25 581.484 225.911 581.931 223.893C582.316 222.161 581.038 221 579.417 221ZM592.917 221.75C593.564 221.75 594.122 221.983 594.448 222.39C594.729 222.74 594.816 223.204 594.699 223.731C594.384 225.153 593.773 225.5 591.589 225.5H590.036L590.692 221.75H592.917ZM592.917 221H590.062L588.75 228.5H589.5L589.896 226.25H591.589C593.788 226.25 594.984 225.911 595.431 223.893C595.816 222.161 594.538 221 592.917 221Z" fill="#36404D"/>
<path d="M588.402 221.455C588.072 221.131 587.491 221 586.625 221H584.549L585 218.75H584.213L582.75 226.25H583.496L584.392 221.75H584.549H586.626C587.502 221.75 587.786 221.9 587.876 221.989C588.005 222.116 588.035 222.449 587.958 222.875L587.295 226.25H588.085L588.695 223.014C588.825 222.298 588.726 221.773 588.402 221.455Z" fill="#36404D"/>
</g>
<path d="M623.75 215.25C623.75 213.869 624.869 212.75 626.25 212.75H643.75C645.131 212.75 646.25 213.869 646.25 215.25V232.75C646.25 234.131 645.131 235.25 643.75 235.25H626.25C624.869 235.25 623.75 234.131 623.75 232.75V215.25Z" fill="#03A9F4"/>
<path d="M632.51 220.984H631.259V223.755H632.492C632.834 223.755 633.098 223.643 633.286 223.419C633.473 223.196 633.566 222.87 633.566 222.443C633.566 221.999 633.471 221.646 633.279 221.384C633.088 221.121 632.831 220.988 632.51 220.984Z" fill="#020F16"/>
<path d="M625.625 214.625V233.375H644.375V214.625H625.625ZM634.603 224.493C634.087 224.998 633.371 225.25 632.455 225.25H631.259V228.375H629.464V219.488H632.492C633.371 219.488 634.072 219.761 634.594 220.306C635.117 220.851 635.379 221.559 635.379 222.43C635.379 223.301 635.12 223.988 634.603 224.493ZM640.426 227.96C639.983 228.318 639.401 228.497 638.681 228.497C638.196 228.497 637.769 228.402 637.399 228.213C637.029 228.024 636.738 227.76 636.529 227.422C636.319 227.085 636.214 226.721 636.214 226.33H637.856C637.865 226.631 637.934 226.857 638.067 227.007C638.199 227.158 638.416 227.233 638.717 227.233C639.181 227.233 639.412 227.024 639.412 226.604C639.412 226.458 639.342 226.323 639.202 226.199C639.061 226.075 638.75 225.907 638.266 225.696C637.554 225.407 637.064 225.108 636.797 224.798C636.531 224.488 636.398 224.104 636.398 223.644C636.398 223.066 636.606 222.589 637.023 222.213C637.44 221.837 637.993 221.649 638.68 221.649C639.404 221.649 639.984 221.836 640.419 222.21C640.855 222.584 641.073 223.087 641.073 223.718H639.345C639.345 223.181 639.122 222.912 638.674 222.912C638.491 222.912 638.341 222.969 638.222 223.082C638.103 223.196 638.045 223.356 638.045 223.559C638.045 223.705 638.11 223.834 638.241 223.946C638.371 224.058 638.677 224.218 639.163 224.426C639.867 224.686 640.364 224.976 640.655 225.296C640.946 225.615 641.091 226.029 641.091 226.537C641.091 227.128 640.869 227.602 640.426 227.96Z" fill="#020F16"/>
<path d="M686.25 219.625H681.25C678.834 219.625 676.875 217.666 676.875 215.25C676.875 212.834 678.834 210.875 681.25 210.875H686.25V219.625Z" fill="url(#paint3_linear_9_234)"/>
<path d="M685.625 228.375H681.25C678.834 228.375 676.875 226.416 676.875 224C676.875 221.584 678.834 219.625 681.25 219.625H685.625V228.375Z" fill="url(#paint4_linear_9_234)"/>
<path d="M681.25 237.125C678.834 237.125 676.875 235.166 676.875 232.75C676.875 230.334 678.834 228.375 681.25 228.375H685.625V232.75C685.625 235.166 683.666 237.125 681.25 237.125Z" fill="url(#paint5_linear_9_234)"/>
<path d="M690 219.625H685.625V210.875H690C692.416 210.875 694.375 212.834 694.375 215.25C694.375 217.666 692.416 219.625 690 219.625Z" fill="url(#paint6_linear_9_234)"/>
<path d="M690 228.375C692.416 228.375 694.375 226.416 694.375 224C694.375 221.584 692.416 219.625 690 219.625C687.584 219.625 685.625 221.584 685.625 224C685.625 226.416 687.584 228.375 690 228.375Z" fill="url(#paint7_linear_9_234)"/>
<g clip-path="url(#clip2_9_234)">
<path d="M715 220H717.667V234.667H720.333V217.333H715V220Z" fill="#C74343"/>
<path d="M717.667 216H721.667V234.667H724.333V213.333H717.667V216ZM729.667 224C729.667 219.588 733.255 216 737.667 216C742.079 216 745.667 219.588 745.667 224H748.333C748.333 218.119 743.548 213.333 737.667 213.333C731.785 213.333 727 218.119 727 224C727 229.881 731.785 234.667 737.667 234.667H755V232H737.667C733.255 232 729.667 228.412 729.667 224Z" fill="#C74343"/>
<path d="M737.667 226.667C736.196 226.667 735 225.471 735 224C735 222.529 736.196 221.333 737.667 221.333C739.137 221.333 740.333 222.529 740.333 224H743C743 221.059 740.608 218.667 737.667 218.667C734.725 218.667 732.333 221.059 732.333 224C732.333 226.941 734.725 229.333 737.667 229.333H755V226.667H737.667Z" fill="#C74343"/>
</g>
<path d="M785 237C792.18 237 798 231.18 798 224C798 216.82 792.18 211 785 211C777.82 211 772 216.82 772 224C772 231.18 777.82 237 785 237Z" fill="#012169"/>
<path d="M795.017 215.715L785 221.726L774.983 215.715C774.15 216.723 773.474 217.85 772.978 219.06L781.211 224L772.978 228.94C773.473 230.15 774.149 231.277 774.982 232.285L785 226.274L795.018 232.284C795.851 231.277 796.527 230.149 797.022 228.939L788.789 223.999L797.022 219.059C796.526 217.85 795.85 216.723 795.017 215.715Z" fill="white"/>
<path d="M774.589 231.763L786.263 224.758L796.136 230.682C796.36 230.31 796.565 229.926 796.75 229.534L786.263 223.242L796.136 217.319C795.911 216.946 795.669 216.585 795.41 216.237L783.736 223.242L773.863 217.319C773.641 217.69 773.436 218.072 773.25 218.466L783.736 224.758L773.863 230.682C774.087 231.054 774.33 231.415 774.589 231.763Z" fill="#C8102E"/>
<path d="M788.25 211.426C786.121 210.858 783.879 210.858 781.75 211.426V220.75H772.426C771.858 222.879 771.858 225.121 772.426 227.25H781.75V236.574C783.879 237.142 786.121 237.142 788.25 236.574V227.25H797.574C798.142 225.121 798.142 222.879 797.574 220.75H788.25V211.426Z" fill="white"/>
<path d="M786.95 211.162C786.305 211.059 785.653 211.005 785 211C784.347 211.005 783.695 211.059 783.05 211.162V222.05H772.162C772.059 222.695 772.005 223.347 772 224C772.005 224.653 772.059 225.305 772.162 225.95H783.05V236.838C783.695 236.941 784.347 236.995 785 237C785.653 236.995 786.305 236.941 786.95 236.838V225.95H797.838C797.941 225.305 797.995 224.653 798 224C797.995 223.347 797.941 222.695 797.838 222.05H786.95V211.162Z" fill="#C8102E"/>
<rect x="0.5" y="309.5" width="122" height="69" rx="4.5" stroke="#9747FF" stroke-dasharray="10 5"/>
<path d="M100.363 333.453H75.6367C74.1858 333.453 73 334.634 73 336.09V351.91C73 353.367 74.1866 354.547 75.6367 354.547H100.363C101.814 354.547 103 353.366 103 351.91V336.09C103 334.633 101.814 333.453 100.363 333.453ZM99.9584 335.211L88.6811 346.525C88.3375 346.87 87.6627 346.87 87.3189 346.525L76.0416 335.211H99.9584ZM74.7578 351.587V336.413L82.3202 344L74.7578 351.587ZM76.0416 352.789L83.5612 345.245L86.074 347.766C87.1037 348.799 88.8967 348.799 89.9261 347.766L92.4389 345.245L99.9584 352.789H76.0416ZM101.242 351.587L93.6798 344L101.242 336.413V351.587Z" fill="black"/>
<g clip-path="url(#clip3_9_234)">
<path d="M48.1578 350.182C48.1081 350.141 42.4934 346.122 40.97 346.386C40.2378 346.515 39.8188 347.014 38.9797 348.014C38.7477 348.293 38.5105 348.566 38.2681 348.836C37.7378 348.663 37.2205 348.452 36.7203 348.206C34.138 346.948 32.0516 344.862 30.7944 342.28C30.5477 341.779 30.3371 341.262 30.1644 340.732C30.44 340.48 30.8263 340.154 30.9913 340.016C31.9859 339.181 32.4847 338.762 32.6141 338.029C32.8794 336.511 28.8594 330.892 28.8181 330.841C28.6351 330.582 28.3966 330.366 28.12 330.21C27.8434 330.053 27.5356 329.96 27.2188 329.938C25.5894 329.938 20.9375 335.971 20.9375 336.988C20.9375 337.048 21.0228 343.051 28.4262 350.582C35.9488 357.977 41.9525 358.062 42.0116 358.062C43.0287 358.062 49.0625 353.411 49.0625 351.781C49.0397 351.464 48.9466 351.156 48.7902 350.88C48.6337 350.603 48.4177 350.365 48.1578 350.182ZM41.9084 356.182C41.0891 356.114 36.0509 355.45 29.7519 349.261C23.5316 342.928 22.8837 337.876 22.8191 337.093C24.0479 335.165 25.532 333.411 27.2309 331.88C27.2684 331.918 27.3181 331.974 27.3819 332.047C28.6848 333.826 29.8073 335.73 30.7325 337.731C30.4316 338.034 30.1136 338.319 29.78 338.585C29.2627 338.979 28.7876 339.426 28.3625 339.918L28.1347 340.237L28.2022 340.622C28.4006 341.482 28.7045 342.313 29.1069 343.098C30.5486 346.059 32.941 348.451 35.9019 349.892C36.6866 350.295 37.5183 350.599 38.3778 350.798L38.7631 350.865L39.0819 350.638C39.5759 350.21 40.0246 349.734 40.4206 349.214C40.7141 348.864 41.1069 348.396 41.255 348.264C43.262 349.188 45.171 350.312 46.9531 351.618C47.0309 351.684 47.0853 351.734 47.1219 351.767C45.5912 353.467 43.8374 354.951 41.9084 356.18V356.182Z" fill="black"/>
</g>
<defs>
<linearGradient id="paint0_linear_9_234" x1="373.125" y1="224" x2="396.875" y2="224" gradientUnits="userSpaceOnUse">
<stop offset="0.002" stop-color="#427FDB"/>
<stop offset="0.397" stop-color="#2668CB"/>
<stop offset="0.763" stop-color="#1358BF"/>
<stop offset="1" stop-color="#0C52BB"/>
</linearGradient>
<linearGradient id="paint1_linear_9_234" x1="373.125" y1="220.689" x2="396.554" y2="220.689" gradientUnits="userSpaceOnUse">
<stop stop-color="#32BDEF"/>
<stop offset="1" stop-color="#1EA2E4"/>
</linearGradient>
<linearGradient id="paint2_linear_9_234" x1="384.746" y1="223.908" x2="396.875" y2="223.908" gradientUnits="userSpaceOnUse">
<stop stop-color="#2AA4F4"/>
<stop offset="1" stop-color="#007AD9"/>
</linearGradient>
<linearGradient id="paint3_linear_9_234" x1="680.193" y1="209.688" x2="684.389" y2="221.216" gradientUnits="userSpaceOnUse">
<stop stop-color="#F44F5A"/>
<stop offset="0.443" stop-color="#EE3D4A"/>
<stop offset="1" stop-color="#E52030"/>
</linearGradient>
<linearGradient id="paint4_linear_9_234" x1="679.775" y1="218.147" x2="683.946" y2="229.607" gradientUnits="userSpaceOnUse">
<stop stop-color="#AE4CD5"/>
<stop offset="1" stop-color="#9331BF"/>
</linearGradient>
<linearGradient id="paint5_linear_9_234" x1="679.256" y1="225.473" x2="683.638" y2="237.511" gradientUnits="userSpaceOnUse">
<stop stop-color="#33C481"/>
<stop offset="1" stop-color="#21A366"/>
</linearGradient>
<linearGradient id="paint6_linear_9_234" x1="687.186" y1="209.32" x2="691.324" y2="220.689" gradientUnits="userSpaceOnUse">
<stop stop-color="#F09CA2"/>
<stop offset="1" stop-color="#EB6773"/>
</linearGradient>
<linearGradient id="paint7_linear_9_234" x1="687.946" y1="218.358" x2="691.786" y2="228.906" gradientUnits="userSpaceOnUse">
<stop stop-color="#32BDEF"/>
<stop offset="1" stop-color="#1EA2E4"/>
</linearGradient>
<clipPath id="clip0_9_234">
<rect width="30" height="30" fill="white" transform="translate(170 89)"/>
</clipPath>
<clipPath id="clip1_9_234">
<rect width="30" height="30" fill="white" transform="translate(570 209)"/>
</clipPath>
<clipPath id="clip2_9_234">
<rect width="30" height="30" fill="white" transform="translate(720 209)"/>
</clipPath>
<clipPath id="clip3_9_234">
<rect width="30" height="30" fill="white" transform="translate(20 329)"/>
</clipPath>
</defs>
</svg>
